<?xml version="1.0" encoding="UTF-8" standalone="no"?>
<svg
   xmlns:dc="http://purl.org/dc/elements/1.1/"
   xmlns:cc="http://creativecommons.org/ns#"
   xmlns:rdf="http://www.w3.org/1999/02/22-rdf-syntax-ns#"
   xmlns:svg="http://www.w3.org/2000/svg"
   xmlns="http://www.w3.org/2000/svg"
   version="1.1"
   width="512"
   viewBox="0 0 512.097 512.097"
   height="512"
   enable-background="new 0 0 512.097 512.097"
   id="Layer_1">
  <metadata
     id="metadata93">
    <rdf:RDF>
      <cc:Work
         rdf:about="">
        <dc:format>image/svg+xml</dc:format>
        <dc:type
           rdf:resource="http://purl.org/dc/dcmitype/StillImage" />
        <dc:title></dc:title>
      </cc:Work>
    </rdf:RDF>
  </metadata>
  <defs
     id="defs91" />
  <path
     id="path86"
     d="m447.719 223.672c-4.539-70.814-63.594-127.032-135.533-127.032-25.815 0-50.935 7.277-72.643 21.046-16.298 10.337-30.149 23.964-40.706 39.937-12.642-6.789-26.869-10.419-41.372-10.419-23.137 0-44.943 8.953-61.402 25.208-13.572 13.404-22.23 30.507-25.016 49.06-18.286 5.387-34.791 16.028-47.321 30.683-15.3 17.893-23.726 40.729-23.726 64.301 0 54.589 44.412 99.001 99.002 99.001h314.094c54.589 0 99.001-44.412 99.001-99.002 0-41.891-25.95-78.534-64.378-92.783zm-34.623 161.785h-314.094c-38.048 0-69.002-30.954-69.002-69.002 0-33.867 24.201-62.486 57.545-68.051 7.155-1.194 12.431-7.337 12.53-14.59.427-31.215 26.172-56.611 57.39-56.611 13.41 0 26.461 4.727 36.748 13.31 3.529 2.945 8.212 4.108 12.71 3.159 4.497-.95 8.31-3.909 10.347-8.03 17.988-36.394 54.358-59.001 94.916-59.001 58.346 0 105.813 47.468 105.813 105.814 0 .694-.014 1.384-.027 2.074-.14 7.032 4.626 13.216 11.46 14.874 31.009 7.523 52.665 35.097 52.665 67.054 0 38.046-30.954 69-69.001 69z" />
  <g
     transform="matrix(0.80819856,0,0,0.80819856,122.69655,141.09089)"
     id="g157">
    <g
       id="XMLID_85_">
	
	<path
   id="XMLID_89_"
   d="m 164.999,179.823 c -0.001,0 0.001,0 0,0 -23.238,0 -45.087,9.05 -61.518,25.482 -5.858,5.857 -5.858,15.355 0,21.213 2.929,2.929 6.768,4.394 10.607,4.394 3.839,0 7.678,-1.465 10.606,-4.394 10.766,-10.766 25.08,-16.694 40.305,-16.694 15.225,0 29.539,5.929 40.305,16.694 5.857,5.857 15.355,5.857 21.213,0 5.858,-5.857 5.858,-15.355 0,-21.213 -16.432,-16.432 -38.279,-25.482 -61.518,-25.482 z" />

	<path
   id="XMLID_90_"
   d="m 115.14,147.14 c 3.73,-3.72 5.86,-8.88 5.86,-14.14 0,-5.26 -2.13,-10.42 -5.86,-14.141 C 111.42,115.14 106.26,113 101,113 95.73,113 90.58,115.14 86.86,118.859 83.14,122.58 81,127.74 81,133 c 0,5.26 2.14,10.42 5.86,14.14 3.72,3.72 8.88,5.86 14.14,5.86 5.26,0 10.42,-2.14 14.14,-5.86 z" />

	<path
   id="XMLID_91_"
   d="m 229,113 c -5.27,0 -10.42,2.14 -14.14,5.859 -3.73,3.721 -5.86,8.881 -5.86,14.141 0,5.26 2.13,10.42 5.86,14.14 3.72,3.72 8.88,5.86 14.14,5.86 5.26,0 10.42,-2.141 14.14,-5.86 3.73,-3.72 5.86,-8.88 5.86,-14.14 0,-5.26 -2.13,-10.42 -5.86,-14.141 C 239.42,115.14 234.26,113 229,113 Z" />

</g>
    <g
       id="g100">
</g>
    <g
       id="g102">
</g>
    <g
       id="g104">
</g>
    <g
       id="g106">
</g>
    <g
       id="g108">
</g>
    <g
       id="g110">
</g>
    <g
       id="g112">
</g>
    <g
       id="g114">
</g>
    <g
       id="g116">
</g>
    <g
       id="g118">
</g>
    <g
       id="g120">
</g>
    <g
       id="g122">
</g>
    <g
       id="g124">
</g>
    <g
       id="g126">
</g>
    <g
       id="g128">
</g>
  </g>
</svg>
