<svg width="78" height="14" viewBox="0 0 69 14" fill="none" xmlns="http://www.w3.org/2000/svg">
<path d="M10.6837 10.869V13.989H9.47465V12H1.98665L1.97365 13.989H0.764648L0.777649 10.869H1.21965C1.79165 10.8343 2.19465 10.3837 2.42865 9.517C2.66265 8.64166 2.80565 7.411 2.85765 5.825L2.94865 2.89999H9.34465V10.869H10.6837ZM4.00165 5.942C3.95832 7.22466 3.85432 8.28633 3.68965 9.127C3.53365 9.96766 3.27798 10.5483 2.92265 10.869H8.05765V4.03099H4.06665L4.00165 5.942Z" fill="#7DA65F"/>
<path d="M14.2809 2.89999H15.5679V9.92L20.9499 2.89999H22.1459V12H20.8719V4.99299L15.4769 12H14.2809V2.89999Z" fill="#7DA65F"/>
<path d="M31.158 7.255C31.73 7.411 32.1764 7.68399 32.497 8.07399C32.8177 8.45533 32.978 8.91466 32.978 9.45199C32.978 9.98933 32.8047 10.4617 32.458 10.869C32.12 11.2677 31.665 11.5753 31.093 11.792C30.5297 12 29.9144 12.104 29.247 12.104C28.6404 12.104 28.038 12.013 27.44 11.831C26.842 11.649 26.296 11.376 25.802 11.012L26.257 10.05C26.6557 10.362 27.102 10.596 27.596 10.752C28.09 10.908 28.5884 10.986 29.091 10.986C29.819 10.986 30.43 10.8343 30.924 10.531C31.418 10.219 31.665 9.79433 31.665 9.257C31.665 8.79766 31.4787 8.44666 31.106 8.20399C30.7334 7.95266 30.209 7.82699 29.533 7.82699H27.505V6.77399H29.442C30.0227 6.77399 30.4734 6.657 30.794 6.423C31.1234 6.18033 31.288 5.84666 31.288 5.42199C31.288 4.94533 31.0757 4.56833 30.651 4.29099C30.2264 4.01366 29.689 3.875 29.039 3.875C28.6144 3.875 28.181 3.93566 27.739 4.057C27.3057 4.17833 26.894 4.36033 26.504 4.60299L26.088 3.53699C26.5474 3.27699 27.0327 3.08199 27.544 2.95199C28.0554 2.82199 28.5667 2.75699 29.078 2.75699C29.7194 2.75699 30.3087 2.85666 30.846 3.05599C31.3834 3.25533 31.808 3.54566 32.12 3.92699C32.4407 4.30833 32.601 4.75466 32.601 5.266C32.601 5.72533 32.471 6.12833 32.211 6.475C31.9597 6.82166 31.6087 7.08166 31.158 7.255Z" fill="#7DA65F"/>
<path d="M42.8789 9.72499H38.0429L37.0419 12H35.7029L39.8239 2.89999H41.1109L45.2449 12H43.8799L42.8789 9.72499ZM42.4239 8.68499L40.4609 4.22599L38.4979 8.68499H42.4239Z" fill="#7DA65F"/>
<path d="M48.6354 2.89999H49.9224V9.92L55.3044 2.89999H56.5004V12H55.2264V4.99299L49.8314 12H48.6354V2.89999ZM52.5484 2.26299C51.8378 2.26299 51.2874 2.11133 50.8974 1.80799C50.5161 1.49599 50.3211 1.05399 50.3124 0.481995H51.2354C51.2441 0.819994 51.3611 1.08433 51.5864 1.27499C51.8204 1.45699 52.1411 1.54799 52.5484 1.54799C52.9384 1.54799 53.2504 1.45699 53.4844 1.27499C53.7271 1.08433 53.8527 0.819994 53.8614 0.481995H54.7714C54.7628 1.04533 54.5634 1.48299 54.1734 1.79499C53.7921 2.10699 53.2504 2.26299 52.5484 2.26299Z" fill="#7DA65F"/>
<path d="M68.9836 2.89999V12H67.6836V7.944H62.4576V12H61.1576V2.89999H62.4576V6.81299H67.6836V2.89999H68.9836Z" fill="#7DA65F"/>
</svg>
