<svg width="106" height="12" viewBox="0 0 106 12" fill="none" xmlns="http://www.w3.org/2000/svg">
<path d="M13.215 5.735C13.215 7.125 12.73 8.215 11.76 9.005C10.79 9.795 9.42 10.22 7.65 10.28V11.39H6.255V10.28C4.485 10.21 3.11 9.78 2.13 8.99C1.16 8.2 0.675 7.115 0.675 5.735C0.675 4.345 1.16 3.255 2.13 2.465C3.11 1.675 4.485 1.245 6.255 1.175V0.11H7.65V1.175C9.41 1.245 10.775 1.68 11.745 2.48C12.725 3.27 13.215 4.355 13.215 5.735ZM7.65 9.11C8.99 9.03 10.01 8.705 10.71 8.135C11.42 7.555 11.775 6.75 11.775 5.72C11.775 4.71 11.415 3.92 10.695 3.35C9.985 2.77 8.97 2.44 7.65 2.36V9.11ZM2.13 5.735C2.13 6.755 2.485 7.555 3.195 8.135C3.915 8.705 4.935 9.03 6.255 9.11V2.36C4.915 2.44 3.89 2.765 3.18 3.335C2.48 3.905 2.13 4.705 2.13 5.735ZM25.2359 0.499999L20.5709 9.155C20.2009 9.845 19.7659 10.36 19.2659 10.7C18.7659 11.04 18.2209 11.21 17.6309 11.21C17.1709 11.21 16.7009 11.105 16.2209 10.895L16.6109 9.695C16.9809 9.825 17.3109 9.89 17.6009 9.89C18.2609 9.89 18.8059 9.54 19.2359 8.84L19.4759 8.465L15.2459 0.499999H16.8509L20.2559 7.16L23.7509 0.499999H25.2359ZM35.6098 1.805H32.0098V11H30.5398V1.805H26.9548V0.499999H35.6098V1.805ZM47.0738 0.499999L42.4088 9.155C42.0388 9.845 41.6038 10.36 41.1038 10.7C40.6038 11.04 40.0588 11.21 39.4688 11.21C39.0088 11.21 38.5388 11.105 38.0588 10.895L38.4488 9.695C38.8188 9.825 39.1488 9.89 39.4388 9.89C40.0988 9.89 40.6438 9.54 41.0738 8.84L41.3138 8.465L37.0838 0.499999H38.6888L42.0938 7.16L45.5888 0.499999H47.0738ZM54.2251 0.499999C55.5851 0.499999 56.6551 0.824999 57.4351 1.475C58.2151 2.125 58.6051 3.02 58.6051 4.16C58.6051 5.3 58.2151 6.195 57.4351 6.845C56.6551 7.495 55.5851 7.82 54.2251 7.82H51.6301V11H50.1301V0.499999H54.2251ZM54.1801 6.515C55.1301 6.515 55.8551 6.315 56.3551 5.915C56.8551 5.505 57.1051 4.92 57.1051 4.16C57.1051 3.4 56.8551 2.82 56.3551 2.42C55.8551 2.01 55.1301 1.805 54.1801 1.805H51.6301V6.515H54.1801ZM62.1916 0.499999H63.6766V8.6L69.8866 0.499999H71.2666V11H69.7966V2.915L63.5716 11H62.1916V0.499999ZM83.2553 1.805H79.6553V11H78.1853V1.805H74.6003V0.499999H83.2553V1.805ZM94.1984 9.695V11H86.5784V0.499999H93.9884V1.805H88.0784V5.03H93.3434V6.305H88.0784V9.695H94.1984ZM105.269 1.805H101.669V11H100.199V1.805H96.6139V0.499999H105.269V1.805Z" fill="#75B090"/>
</svg>
