<svg width="42" height="12" viewBox="0 0 34 12" fill="none" xmlns="http://www.w3.org/2000/svg">
<path d="M7.50501 1.805H2.10501L2.12001 11H0.63501V0.5H7.52001L7.50501 1.805Z" fill="#6D86C4"/>
<path d="M19.4019 0.5L14.7369 9.155C14.3669 9.845 13.9319 10.36 13.4319 10.7C12.9319 11.04 12.3869 11.21 11.7969 11.21C11.3369 11.21 10.8669 11.105 10.3869 10.895L10.7769 9.695C11.1469 9.825 11.4769 9.89 11.7669 9.89C12.4269 9.89 12.9719 9.54 13.4019 8.84L13.6419 8.465L9.41188 0.5H11.0169L14.4219 7.16L17.9169 0.5H19.4019Z" fill="#6D86C4"/>
<path d="M32.1933 11L32.1783 3.35L28.3833 9.725H27.6933L23.8983 3.395V11H22.4583V0.5H23.6883L28.0683 7.88L32.3883 0.5H33.6183L33.6333 11H32.1933Z" fill="#6D86C4"/>
</svg>
