<svg width="36" height="12" viewBox="0 0 29 12" fill="none" xmlns="http://www.w3.org/2000/svg">
<path d="M9.69219 0.380005C10.7022 0.380005 11.6122 0.615005 12.4222 1.08501C13.2322 1.54501 13.8672 2.185 14.3272 3.005C14.7972 3.815 15.0322 4.73 15.0322 5.75C15.0322 6.77 14.7972 7.69 14.3272 8.51C13.8672 9.32001 13.2322 9.96001 12.4222 10.43C11.6122 10.89 10.7022 11.12 9.69219 11.12C8.75219 11.12 7.89719 10.915 7.12719 10.505C6.35719 10.095 5.73219 9.53 5.25219 8.81C4.77219 8.09 4.48719 7.27001 4.39719 6.35001H2.47719V11H0.992188V0.500004H2.47719V5H4.41219C4.52219 4.11 4.81719 3.315 5.29719 2.615C5.78719 1.915 6.41219 1.37 7.17219 0.980004C7.93219 0.580005 8.77219 0.380005 9.69219 0.380005ZM9.69219 9.77C10.4122 9.77 11.0622 9.60001 11.6422 9.26C12.2322 8.91 12.6922 8.43 13.0222 7.82C13.3622 7.21 13.5322 6.52 13.5322 5.75C13.5322 4.98 13.3622 4.29 13.0222 3.68C12.6922 3.07 12.2322 2.595 11.6422 2.25501C11.0622 1.905 10.4122 1.73 9.69219 1.73C8.98219 1.73 8.33719 1.905 7.75719 2.25501C7.17719 2.595 6.71719 3.07 6.37719 3.68C6.04719 4.29 5.88219 4.98 5.88219 5.75C5.88219 6.52 6.04719 7.21 6.37719 7.82C6.71719 8.43 7.17719 8.91 7.75719 9.26C8.33719 9.60001 8.98219 9.77 9.69219 9.77Z" fill="#99C875"/>
<path d="M23.6667 0.500004C25.0267 0.500004 26.0967 0.825004 26.8767 1.475C27.6567 2.125 28.0467 3.02 28.0467 4.16C28.0467 5.3 27.6567 6.19501 26.8767 6.84501C26.0967 7.49501 25.0267 7.82 23.6667 7.82H21.0717V11H19.5717V0.500004H23.6667ZM23.6217 6.515C24.5717 6.515 25.2967 6.315 25.7967 5.915C26.2967 5.505 26.5467 4.92 26.5467 4.16C26.5467 3.4 26.2967 2.82 25.7967 2.42C25.2967 2.01 24.5717 1.805 23.6217 1.805H21.0717V6.515H23.6217Z" fill="#99C875"/>
</svg>
