<svg width="70" height="11" viewBox="0 0 59 11" fill="none" xmlns="http://www.w3.org/2000/svg">
<path d="M9.49518 10L9.48118 2.86L5.93918 8.81H5.29518L1.75318 2.902V10H0.40918V0.199997H1.55718L5.64518 7.088L9.67718 0.199997H10.8252L10.8392 10H9.49518Z" fill="#F09B73" fill-opacity="0.91"/>
<path d="M22.2196 7.55H17.0116L15.9336 10H14.4916L18.9296 0.199997H20.3156L24.7676 10H23.2976L22.2196 7.55ZM21.7297 6.43L19.6156 1.628L17.5016 6.43H21.7297Z" fill="#F09B73" fill-opacity="0.91"/>
<path d="M34.6608 1.418H31.3008V10H29.9288V1.418H26.5828V0.199997H34.6608V1.418Z" fill="#F09B73" fill-opacity="0.91"/>
<path d="M41.0244 0.0879974C41.9577 0.0879974 42.7977 0.307331 43.5444 0.745997C44.291 1.17533 44.879 1.77266 45.3084 2.538C45.7377 3.294 45.9524 4.148 45.9524 5.1C45.9524 6.052 45.7377 6.91066 45.3084 7.676C44.879 8.432 44.291 9.02933 43.5444 9.468C42.7977 9.89733 41.9577 10.112 41.0244 10.112C40.2217 10.112 39.4937 9.98133 38.8404 9.72C38.187 9.45866 37.641 9.076 37.2024 8.572L38.0844 7.69C38.8217 8.46466 39.7784 8.852 40.9544 8.852C41.5797 8.852 42.1491 8.71666 42.6624 8.446C43.1757 8.166 43.5957 7.77866 43.9224 7.284C44.249 6.78933 44.4451 6.22466 44.5104 5.59H39.7644V4.442H44.4964C44.4031 3.83533 44.193 3.29866 43.8664 2.832C43.5397 2.36533 43.1244 2.00133 42.6204 1.74C42.1164 1.47866 41.5611 1.348 40.9544 1.348C39.7877 1.348 38.831 1.73533 38.0844 2.51L37.2024 1.628C37.641 1.124 38.187 0.741331 38.8404 0.479998C39.503 0.218664 40.2311 0.0879974 41.0244 0.0879974Z" fill="#F09B73" fill-opacity="0.91"/>
<path d="M53.5968 5.688H51.5528V10H50.1808V0.199997H51.5528V4.456H53.6248L56.7048 0.199997H58.2028L54.7028 4.946L58.3708 10H56.7748L53.5968 5.688Z" fill="#F09B73" fill-opacity="0.91"/>
</svg>
