<svg width="160" height="13" viewBox="0 0 150 13" fill="none" xmlns="http://www.w3.org/2000/svg">
<path d="M12.6439 13.0002L12.6259 3.82018L8.07191 11.4702H7.24391L2.68991 3.87419V13.0002H0.961914V0.400185H2.43791L7.69391 9.25619L12.8779 0.400185H14.3539L14.3719 13.0002H12.6439Z" fill="#F8D844" fill-opacity="0.7"/>
<path d="M28.2839 9.85019H21.5879L20.2019 13.0002H18.3479L24.0539 0.400185H25.8359L31.5599 13.0002H29.6699L28.2839 9.85019ZM27.6539 8.41018L24.9359 2.23618L22.2179 8.41018H27.6539Z" fill="#F8D844" fill-opacity="0.7"/>
<path d="M43.5598 1.96619H39.2398V13.0002H37.4758V1.96619H33.1738V0.400185H43.5598V1.96619Z" fill="#F8D844" fill-opacity="0.7"/>
<path d="M56.6915 11.4342V13.0002H47.5475V0.400185H56.4395V1.96619H49.3475V5.83618H55.6655V7.36618H49.3475V11.4342H56.6915Z" fill="#F8D844" fill-opacity="0.7"/>
<path d="M73.0002 13.0002L72.9822 3.82018L68.4282 11.4702H67.6002L63.0462 3.87419V13.0002H61.3182V0.400185H62.7942L68.0502 9.25619L73.2342 0.400185H74.7102L74.7282 13.0002H73.0002Z" fill="#F8D844" fill-opacity="0.7"/>
<path d="M88.6402 9.85019H81.9442L80.5582 13.0002H78.7042L84.4102 0.400185H86.1922L91.9162 13.0002H90.0262L88.6402 9.85019ZM88.0102 8.41018L85.2922 2.23618L82.5742 8.41018H88.0102Z" fill="#F8D844" fill-opacity="0.7"/>
<path d="M103.916 1.96619H99.596V13.0002H97.832V1.96619H93.53V0.400185H103.916V1.96619Z" fill="#F8D844" fill-opacity="0.7"/>
<path d="M107.904 0.400185H109.686V10.1202L117.138 0.400185H118.794V13.0002H117.03V3.29818L109.56 13.0002H107.904V0.400185Z" fill="#F8D844" fill-opacity="0.7"/>
<path d="M128.914 7.45618H126.286V13.0002H124.522V0.400185H126.286V5.87219H128.95L132.91 0.400185H134.836L130.336 6.50219L135.052 13.0002H133L128.914 7.45618Z" fill="#F8D844" fill-opacity="0.7"/>
<path d="M146.711 9.85019H140.015L138.629 13.0002H136.775L142.481 0.400185H144.263L149.987 13.0002H148.097L146.711 9.85019ZM146.081 8.41018L143.363 2.23618L140.645 8.41018H146.081Z" fill="#F8D844" fill-opacity="0.7"/>
</svg>
