<svg width="92" height="11" viewBox="0 0 84 11" fill="none" xmlns="http://www.w3.org/2000/svg">
<path d="M9.312 9.88697L9.299 3.25697L6.01 8.78197H5.412L2.123 3.29597V9.88697H0.875V0.786974H1.941L5.737 7.18297L9.481 0.786974H10.547L10.56 9.88697H9.312Z" fill="#96B67E" fill-opacity="0.9"/>
<path d="M21.1276 7.61197H16.2916L15.2906 9.88697H13.9516L18.0726 0.786974H19.3596L23.4936 9.88697H22.1286L21.1276 7.61197ZM20.6726 6.57197L18.7096 2.11297L16.7466 6.57197H20.6726Z" fill="#96B67E" fill-opacity="0.9"/>
<path d="M32.6801 1.91797H29.5601V9.88697H28.2861V1.91797H25.1791V0.786974H32.6801V1.91797Z" fill="#96B67E" fill-opacity="0.9"/>
<path d="M36.0801 0.786974H37.3671V7.80697L42.7491 0.786974H43.9451V9.88697H42.6711V2.87997L37.2761 9.88697H36.0801V0.786974Z" fill="#96B67E" fill-opacity="0.9"/>
<path d="M56.4283 0.786974V9.88697H55.1283V5.83098H49.9023V9.88697H48.6023V0.786974H49.9023V4.69997H55.1283V0.786974H56.4283Z" fill="#96B67E" fill-opacity="0.9"/>
<path d="M71.1223 5.32398C71.1223 6.52864 70.702 7.47331 69.8613 8.15797C69.0207 8.84264 67.8333 9.21098 66.2993 9.26298V10.225H65.0903V9.26298C63.5563 9.20231 62.3647 8.82964 61.5153 8.14498C60.6747 7.46031 60.2543 6.51998 60.2543 5.32398C60.2543 4.11931 60.6747 3.17464 61.5153 2.48997C62.3647 1.80531 63.5563 1.43264 65.0903 1.37197V0.448975H66.2993V1.37197C67.8247 1.43264 69.0077 1.80964 69.8483 2.50297C70.6977 3.18764 71.1223 4.12797 71.1223 5.32398ZM66.2993 8.24897C67.4607 8.17964 68.3447 7.89798 68.9513 7.40398C69.5667 6.90131 69.8743 6.20364 69.8743 5.31097C69.8743 4.43564 69.5623 3.75097 68.9383 3.25697C68.323 2.75431 67.4433 2.46831 66.2993 2.39897V8.24897ZM61.5153 5.32398C61.5153 6.20798 61.823 6.90131 62.4383 7.40398C63.0623 7.89798 63.9463 8.17964 65.0903 8.24897V2.39897C63.929 2.46831 63.0407 2.74997 62.4253 3.24397C61.8187 3.73797 61.5153 4.43131 61.5153 5.32398Z" fill="#96B67E" fill-opacity="0.9"/>
<path d="M79.0365 9.99097C78.1178 9.99097 77.2901 9.79164 76.5535 9.39297C75.8168 8.98564 75.2362 8.42664 74.8115 7.71597C74.3955 7.00531 74.1875 6.21231 74.1875 5.33697C74.1875 4.46164 74.3955 3.66864 74.8115 2.95797C75.2362 2.24731 75.8168 1.69264 76.5535 1.29397C77.2901 0.886641 78.1178 0.682975 79.0365 0.682975C79.9465 0.682975 80.7698 0.886641 81.5065 1.29397C82.2432 1.69264 82.8195 2.24731 83.2355 2.95797C83.6515 3.65997 83.8595 4.45297 83.8595 5.33697C83.8595 6.22097 83.6515 7.01831 83.2355 7.72897C82.8195 8.43097 82.2432 8.98564 81.5065 9.39297C80.7698 9.79164 79.9465 9.99097 79.0365 9.99097ZM79.0365 8.83397C79.7038 8.83397 80.3018 8.68231 80.8305 8.37897C81.3678 8.07564 81.7882 7.65964 82.0915 7.13097C82.4035 6.59364 82.5595 5.99564 82.5595 5.33697C82.5595 4.67831 82.4035 4.08464 82.0915 3.55597C81.7882 3.01864 81.3678 2.59831 80.8305 2.29497C80.3018 1.99164 79.7038 1.83997 79.0365 1.83997C78.3692 1.83997 77.7625 1.99164 77.2165 2.29497C76.6792 2.59831 76.2545 3.01864 75.9425 3.55597C75.6391 4.08464 75.4875 4.67831 75.4875 5.33697C75.4875 5.99564 75.6391 6.59364 75.9425 7.13097C76.2545 7.65964 76.6792 8.07564 77.2165 8.37897C77.7625 8.68231 78.3692 8.83397 79.0365 8.83397Z" fill="#96B67E" fill-opacity="0.9"/>
</svg>
