<svg width="92" height="11" viewBox="0 0 84 11" fill="none" xmlns="http://www.w3.org/2000/svg">
<path d="M9.312 9.8869L9.299 3.2569L6.01 8.7819H5.412L2.123 3.2959V9.8869H0.875V0.786898H1.941L5.737 7.1829L9.481 0.786898H10.547L10.56 9.8869H9.312Z" fill="#133BB0" fill-opacity="0.7"/>
<path d="M21.1276 7.6119H16.2916L15.2906 9.8869H13.9516L18.0726 0.786898H19.3596L23.4936 9.8869H22.1286L21.1276 7.6119ZM20.6726 6.5719L18.7096 2.1129L16.7466 6.5719H20.6726Z" fill="#133BB0" fill-opacity="0.7"/>
<path d="M32.6801 1.9179H29.5601V9.8869H28.2861V1.9179H25.1791V0.786898H32.6801V1.9179Z" fill="#133BB0" fill-opacity="0.7"/>
<path d="M36.0801 0.786898H37.3671V7.8069L42.7491 0.786898H43.9451V9.8869H42.6711V2.8799L37.2761 9.8869H36.0801V0.786898Z" fill="#133BB0" fill-opacity="0.7"/>
<path d="M56.4283 0.786898V9.8869H55.1283V5.8309H49.9023V9.8869H48.6023V0.786898H49.9023V4.6999H55.1283V0.786898H56.4283Z" fill="#133BB0" fill-opacity="0.7"/>
<path d="M71.1223 5.3239C71.1223 6.52857 70.702 7.47323 69.8613 8.1579C69.0207 8.84257 67.8333 9.2109 66.2993 9.2629V10.2249H65.0903V9.2629C63.5563 9.20223 62.3647 8.82957 61.5153 8.1449C60.6747 7.46023 60.2543 6.5199 60.2543 5.3239C60.2543 4.11923 60.6747 3.17456 61.5153 2.4899C62.3647 1.80523 63.5563 1.43257 65.0903 1.3719V0.448898H66.2993V1.3719C67.8247 1.43257 69.0077 1.80957 69.8483 2.5029C70.6977 3.18756 71.1223 4.1279 71.1223 5.3239ZM66.2993 8.2489C67.4607 8.17956 68.3447 7.8979 68.9513 7.4039C69.5667 6.90123 69.8743 6.20357 69.8743 5.3109C69.8743 4.43557 69.5623 3.7509 68.9383 3.2569C68.323 2.75423 67.4433 2.46823 66.2993 2.3989V8.2489ZM61.5153 5.3239C61.5153 6.2079 61.823 6.90123 62.4383 7.4039C63.0623 7.8979 63.9463 8.17956 65.0903 8.2489V2.3989C63.929 2.46823 63.0407 2.7499 62.4253 3.2439C61.8187 3.7379 61.5153 4.43123 61.5153 5.3239Z" fill="#133BB0" fill-opacity="0.7"/>
<path d="M79.0365 9.9909C78.1178 9.9909 77.2901 9.79157 76.5535 9.3929C75.8168 8.98557 75.2362 8.42656 74.8115 7.7159C74.3955 7.00523 74.1875 6.21223 74.1875 5.3369C74.1875 4.46156 74.3955 3.66856 74.8115 2.9579C75.2362 2.24723 75.8168 1.69256 76.5535 1.2939C77.2901 0.886565 78.1178 0.682899 79.0365 0.682899C79.9465 0.682899 80.7698 0.886565 81.5065 1.2939C82.2432 1.69256 82.8195 2.24723 83.2355 2.9579C83.6515 3.6599 83.8595 4.4529 83.8595 5.3369C83.8595 6.2209 83.6515 7.01823 83.2355 7.7289C82.8195 8.4309 82.2432 8.98557 81.5065 9.3929C80.7698 9.79157 79.9465 9.9909 79.0365 9.9909ZM79.0365 8.8339C79.7038 8.8339 80.3018 8.68223 80.8305 8.3789C81.3678 8.07556 81.7882 7.65956 82.0915 7.1309C82.4035 6.59356 82.5595 5.99557 82.5595 5.3369C82.5595 4.67823 82.4035 4.08456 82.0915 3.5559C81.7882 3.01856 81.3678 2.59823 80.8305 2.2949C80.3018 1.99156 79.7038 1.8399 79.0365 1.8399C78.3692 1.8399 77.7625 1.99156 77.2165 2.2949C76.6792 2.59823 76.2545 3.01856 75.9425 3.5559C75.6391 4.08456 75.4875 4.67823 75.4875 5.3369C75.4875 5.99557 75.6391 6.59356 75.9425 7.1309C76.2545 7.65956 76.6792 8.07556 77.2165 8.3789C77.7625 8.68223 78.3692 8.8339 79.0365 8.8339Z" fill="#133BB0" fill-opacity="0.7"/>
</svg>
