<svg width="70" height="11" viewBox="0 0 59 11" fill="none" xmlns="http://www.w3.org/2000/svg">
<path d="M9.49518 10L9.48118 2.86001L5.93918 8.81001H5.29518L1.75318 2.90201V10H0.40918V0.200012H1.55718L5.64518 7.08801L9.67718 0.200012H10.8252L10.8392 10H9.49518Z" fill="#96B67E" fill-opacity="0.88"/>
<path d="M22.2196 7.55001H17.0116L15.9336 10H14.4916L18.9296 0.200012H20.3156L24.7676 10H23.2976L22.2196 7.55001ZM21.7297 6.43001L19.6156 1.62801L17.5016 6.43001H21.7297Z" fill="#96B67E" fill-opacity="0.88"/>
<path d="M34.6608 1.41801H31.3008V10H29.9288V1.41801H26.5828V0.200012H34.6608V1.41801Z" fill="#96B67E" fill-opacity="0.88"/>
<path d="M41.0244 0.0880127C41.9577 0.0880127 42.7977 0.307346 43.5444 0.746013C44.291 1.17535 44.879 1.77268 45.3084 2.53801C45.7377 3.29401 45.9524 4.14801 45.9524 5.10001C45.9524 6.05201 45.7377 6.91068 45.3084 7.67601C44.879 8.43201 44.291 9.02935 43.5444 9.46801C42.7977 9.89735 41.9577 10.112 41.0244 10.112C40.2217 10.112 39.4937 9.98135 38.8404 9.72001C38.187 9.45868 37.641 9.07601 37.2024 8.57201L38.0844 7.69001C38.8217 8.46468 39.7784 8.85201 40.9544 8.85201C41.5797 8.85201 42.1491 8.71668 42.6624 8.44601C43.1757 8.16601 43.5957 7.77868 43.9224 7.28401C44.249 6.78935 44.4451 6.22468 44.5104 5.59001H39.7644V4.44201H44.4964C44.4031 3.83535 44.193 3.29868 43.8664 2.83201C43.5397 2.36535 43.1244 2.00135 42.6204 1.74001C42.1164 1.47868 41.5611 1.34801 40.9544 1.34801C39.7877 1.34801 38.831 1.73535 38.0844 2.51001L37.2024 1.62801C37.641 1.12401 38.187 0.741346 38.8404 0.480013C39.503 0.21868 40.2311 0.0880127 41.0244 0.0880127Z" fill="#96B67E" fill-opacity="0.88"/>
<path d="M53.5968 5.68801H51.5528V10H50.1808V0.200012H51.5528V4.45601H53.6248L56.7048 0.200012H58.2028L54.7028 4.94601L58.3708 10H56.7748L53.5968 5.68801Z" fill="#96B67E" fill-opacity="0.88"/>
</svg>
