<svg width="84" height="12" viewBox="0 0 74 12" fill="none" xmlns="http://www.w3.org/2000/svg">
<path d="M7.17477 5.55501C7.88477 5.725 8.41977 6.03 8.77977 6.47C9.14977 6.9 9.33477 7.45501 9.33477 8.135C9.33477 9.04501 8.99977 9.75 8.32977 10.25C7.66977 10.75 6.70477 11 5.43477 11H0.634766V0.500004H5.14977C6.29977 0.500004 7.19477 0.735004 7.83477 1.205C8.48477 1.665 8.80977 2.33 8.80977 3.2C8.80977 3.77 8.66477 4.255 8.37477 4.655C8.09477 5.055 7.69477 5.355 7.17477 5.55501ZM2.11977 5.12H5.04477C5.77477 5.12 6.32977 4.975 6.70977 4.685C7.09977 4.395 7.29477 3.97 7.29477 3.41C7.29477 2.85 7.09977 2.425 6.70977 2.135C6.31977 1.835 5.76477 1.685 5.04477 1.685H2.11977V5.12ZM5.40477 9.815C7.01477 9.815 7.81977 9.215 7.81977 8.015C7.81977 7.415 7.61477 6.975 7.20477 6.695C6.80477 6.405 6.20477 6.26 5.40477 6.26H2.11977V9.815H5.40477Z" fill="#6D86C4"/>
<path d="M18.0658 11.12C17.0058 11.12 16.0508 10.89 15.2008 10.43C14.3508 9.96001 13.6808 9.315 13.1908 8.495C12.7108 7.675 12.4708 6.76 12.4708 5.75C12.4708 4.74 12.7108 3.825 13.1908 3.005C13.6808 2.185 14.3508 1.54501 15.2008 1.08501C16.0508 0.615005 17.0058 0.380005 18.0658 0.380005C19.1158 0.380005 20.0658 0.615005 20.9158 1.08501C21.7658 1.54501 22.4308 2.185 22.9108 3.005C23.3908 3.815 23.6308 4.73 23.6308 5.75C23.6308 6.77 23.3908 7.69 22.9108 8.51C22.4308 9.32001 21.7658 9.96001 20.9158 10.43C20.0658 10.89 19.1158 11.12 18.0658 11.12ZM18.0658 9.785C18.8358 9.785 19.5258 9.61001 20.1358 9.26C20.7558 8.91 21.2408 8.43 21.5908 7.82C21.9508 7.2 22.1308 6.51 22.1308 5.75C22.1308 4.99 21.9508 4.305 21.5908 3.695C21.2408 3.075 20.7558 2.59 20.1358 2.24C19.5258 1.89 18.8358 1.715 18.0658 1.715C17.2958 1.715 16.5958 1.89 15.9658 2.24C15.3458 2.59 14.8558 3.075 14.4958 3.695C14.1458 4.305 13.9708 4.99 13.9708 5.75C13.9708 6.51 14.1458 7.2 14.4958 7.82C14.8558 8.43 15.3458 8.91 15.9658 9.26C16.5958 9.61001 17.2958 9.785 18.0658 9.785Z" fill="#6D86C4"/>
<path d="M32.2507 11.12C31.2007 11.12 30.2507 10.89 29.4007 10.43C28.5607 9.96001 27.9007 9.32001 27.4207 8.51C26.9407 7.69 26.7007 6.77 26.7007 5.75C26.7007 4.73 26.9407 3.815 27.4207 3.005C27.9007 2.185 28.5657 1.54501 29.4157 1.08501C30.2657 0.615005 31.2157 0.380005 32.2657 0.380005C33.0857 0.380005 33.8357 0.520005 34.5157 0.800005C35.1957 1.07 35.7757 1.475 36.2557 2.015L35.2807 2.96001C34.4907 2.13001 33.5057 1.715 32.3257 1.715C31.5457 1.715 30.8407 1.89 30.2107 2.24C29.5807 2.59 29.0857 3.075 28.7257 3.695C28.3757 4.305 28.2007 4.99 28.2007 5.75C28.2007 6.51 28.3757 7.2 28.7257 7.82C29.0857 8.43 29.5807 8.91 30.2107 9.26C30.8407 9.61001 31.5457 9.785 32.3257 9.785C33.4957 9.785 34.4807 9.365 35.2807 8.525L36.2557 9.47001C35.7757 10.01 35.1907 10.42 34.5007 10.7C33.8207 10.98 33.0707 11.12 32.2507 11.12Z" fill="#6D86C4"/>
<path d="M46.9201 1.805H43.3201V11H41.8501V1.805H38.2651V0.500004H46.9201V1.805Z" fill="#6D86C4"/>
<path d="M54.8217 11.12C53.7617 11.12 52.8067 10.89 51.9567 10.43C51.1067 9.96001 50.4367 9.315 49.9467 8.495C49.4667 7.675 49.2267 6.76 49.2267 5.75C49.2267 4.74 49.4667 3.825 49.9467 3.005C50.4367 2.185 51.1067 1.54501 51.9567 1.08501C52.8067 0.615005 53.7617 0.380005 54.8217 0.380005C55.8717 0.380005 56.8217 0.615005 57.6717 1.08501C58.5217 1.54501 59.1867 2.185 59.6667 3.005C60.1467 3.815 60.3867 4.73 60.3867 5.75C60.3867 6.77 60.1467 7.69 59.6667 8.51C59.1867 9.32001 58.5217 9.96001 57.6717 10.43C56.8217 10.89 55.8717 11.12 54.8217 11.12ZM54.8217 9.785C55.5917 9.785 56.2817 9.61001 56.8917 9.26C57.5117 8.91 57.9967 8.43 58.3467 7.82C58.7067 7.2 58.8867 6.51 58.8867 5.75C58.8867 4.99 58.7067 4.305 58.3467 3.695C57.9967 3.075 57.5117 2.59 56.8917 2.24C56.2817 1.89 55.5917 1.715 54.8217 1.715C54.0517 1.715 53.3517 1.89 52.7217 2.24C52.1017 2.59 51.6117 3.075 51.2517 3.695C50.9017 4.305 50.7267 4.99 50.7267 5.75C50.7267 6.51 50.9017 7.2 51.2517 7.82C51.6117 8.43 52.1017 8.91 52.7217 9.26C53.3517 9.61001 54.0517 9.785 54.8217 9.785Z" fill="#6D86C4"/>
<path d="M67.9715 6.38H65.7815V11H64.3115V0.500004H65.7815V5.06H68.0015L71.3015 0.500004H72.9065L69.1565 5.585L73.0865 11H71.3765L67.9715 6.38Z" fill="#6D86C4"/>
</svg>
