<svg width="124" height="11" viewBox="0 0 114 11" fill="none" xmlns="http://www.w3.org/2000/svg">
<path d="M8.64271 0.899997V10H7.36871V2.031H2.09071V10H0.803711V0.899997H8.64271Z" fill="#99C875"/>
<path d="M17.3695 10.104C16.4595 10.104 15.6361 9.90466 14.8995 9.506C14.1715 9.09866 13.5995 8.544 13.1835 7.842C12.7675 7.13133 12.5595 6.334 12.5595 5.45C12.5595 4.566 12.7675 3.773 13.1835 3.071C13.5995 2.36033 14.1758 1.80566 14.9125 1.407C15.6491 0.999664 16.4725 0.795998 17.3825 0.795998C18.0931 0.795998 18.7431 0.917331 19.3325 1.16C19.9218 1.394 20.4245 1.745 20.8405 2.213L19.9955 3.032C19.3108 2.31266 18.4571 1.953 17.4345 1.953C16.7585 1.953 16.1475 2.10466 15.6015 2.408C15.0555 2.71133 14.6265 3.13166 14.3145 3.669C14.0111 4.19766 13.8595 4.79133 13.8595 5.45C13.8595 6.10866 14.0111 6.70666 14.3145 7.244C14.6265 7.77266 15.0555 8.18866 15.6015 8.492C16.1475 8.79533 16.7585 8.947 17.4345 8.947C18.4485 8.947 19.3021 8.583 19.9955 7.855L20.8405 8.674C20.4245 9.142 19.9175 9.49733 19.3195 9.74C18.7301 9.98266 18.0801 10.104 17.3695 10.104Z" fill="#99C875"/>
<path d="M24.4515 0.899997H25.7385V7.92L31.1205 0.899997H32.3165V10H31.0425V2.993L25.6475 10H24.4515V0.899997Z" fill="#99C875"/>
<path d="M37.4937 0.899997L39.8727 4.228L42.2517 0.899997H43.7727L40.6917 5.268L44.0197 10H42.4857L39.8727 6.373L37.2727 10H35.7777L39.0927 5.32L35.9987 0.899997H37.4937Z" fill="#99C875"/>
<path d="M51.2422 10.104C50.3235 10.104 49.4959 9.90466 48.7592 9.506C48.0225 9.09866 47.4419 8.53966 47.0172 7.829C46.6012 7.11833 46.3932 6.32533 46.3932 5.45C46.3932 4.57466 46.6012 3.78166 47.0172 3.071C47.4419 2.36033 48.0225 1.80566 48.7592 1.407C49.4959 0.999664 50.3235 0.795998 51.2422 0.795998C52.1522 0.795998 52.9755 0.999664 53.7122 1.407C54.4489 1.80566 55.0252 2.36033 55.4412 3.071C55.8572 3.773 56.0652 4.566 56.0652 5.45C56.0652 6.334 55.8572 7.13133 55.4412 7.842C55.0252 8.544 54.4489 9.09866 53.7122 9.506C52.9755 9.90466 52.1522 10.104 51.2422 10.104ZM51.2422 8.947C51.9095 8.947 52.5075 8.79533 53.0362 8.492C53.5735 8.18866 53.9939 7.77266 54.2972 7.244C54.6092 6.70666 54.7652 6.10866 54.7652 5.45C54.7652 4.79133 54.6092 4.19766 54.2972 3.669C53.9939 3.13166 53.5735 2.71133 53.0362 2.408C52.5075 2.10466 51.9095 1.953 51.2422 1.953C50.5749 1.953 49.9682 2.10466 49.4222 2.408C48.8849 2.71133 48.4602 3.13166 48.1482 3.669C47.8449 4.19766 47.6932 4.79133 47.6932 5.45C47.6932 6.10866 47.8449 6.70666 48.1482 7.244C48.4602 7.77266 48.8849 8.18866 49.4222 8.492C49.9682 8.79533 50.5749 8.947 51.2422 8.947Z" fill="#99C875"/>
<path d="M67.1688 0.899997V10H65.8948V2.031H61.8648L61.7738 4.696C61.7305 5.95266 61.6265 6.971 61.4618 7.751C61.3058 8.531 61.0545 9.12033 60.7078 9.519C60.3611 9.909 59.8931 10.104 59.3038 10.104C59.0351 10.104 58.7621 10.0693 58.4848 10L58.5758 8.843C58.7145 8.87767 58.8531 8.895 58.9918 8.895C59.3645 8.895 59.6635 8.74766 59.8888 8.453C60.1141 8.14966 60.2831 7.699 60.3958 7.101C60.5085 6.503 60.5821 5.71433 60.6168 4.735L60.7598 0.899997H67.1688Z" fill="#99C875"/>
<path d="M75.9183 10.104C74.9996 10.104 74.172 9.90466 73.4353 9.506C72.6986 9.09866 72.118 8.53966 71.6933 7.829C71.2773 7.11833 71.0693 6.32533 71.0693 5.45C71.0693 4.57466 71.2773 3.78166 71.6933 3.071C72.118 2.36033 72.6986 1.80566 73.4353 1.407C74.172 0.999664 74.9996 0.795998 75.9183 0.795998C76.8283 0.795998 77.6516 0.999664 78.3883 1.407C79.125 1.80566 79.7013 2.36033 80.1173 3.071C80.5333 3.773 80.7413 4.566 80.7413 5.45C80.7413 6.334 80.5333 7.13133 80.1173 7.842C79.7013 8.544 79.125 9.09866 78.3883 9.506C77.6516 9.90466 76.8283 10.104 75.9183 10.104ZM75.9183 8.947C76.5856 8.947 77.1836 8.79533 77.7123 8.492C78.2496 8.18866 78.67 7.77266 78.9733 7.244C79.2853 6.70666 79.4413 6.10866 79.4413 5.45C79.4413 4.79133 79.2853 4.19766 78.9733 3.669C78.67 3.13166 78.2496 2.71133 77.7123 2.408C77.1836 2.10466 76.5856 1.953 75.9183 1.953C75.251 1.953 74.6443 2.10466 74.0983 2.408C73.561 2.71133 73.1363 3.13166 72.8243 3.669C72.521 4.19766 72.3693 4.79133 72.3693 5.45C72.3693 6.10866 72.521 6.70666 72.8243 7.244C73.1363 7.77266 73.561 8.18866 74.0983 8.492C74.6443 8.79533 75.251 8.947 75.9183 8.947Z" fill="#99C875"/>
<path d="M90.6169 2.031H85.9369L85.9499 10H84.6628V0.899997H90.6299L90.6169 2.031Z" fill="#99C875"/>
<path d="M93.9985 0.899997H95.2855V7.92L100.667 0.899997H101.863V10H100.589V2.993L95.1945 10H93.9985V0.899997Z" fill="#99C875"/>
<path d="M113.19 0.899997V10H111.916V7.348H109.407C109.251 7.348 109.134 7.34366 109.056 7.335L107.236 10H105.858L107.873 7.114C107.223 6.89733 106.724 6.53766 106.378 6.035C106.031 5.52366 105.858 4.904 105.858 4.176C105.858 3.14466 106.187 2.343 106.846 1.771C107.513 1.19033 108.41 0.899997 109.537 0.899997H113.19ZM107.171 4.163C107.171 4.839 107.366 5.359 107.756 5.723C108.154 6.07833 108.739 6.256 109.511 6.256H111.916V2.031H109.589C108.809 2.031 108.211 2.213 107.795 2.577C107.379 2.941 107.171 3.46966 107.171 4.163Z" fill="#99C875"/>
</svg>
