<svg width="76" height="14" viewBox="0 0 66 14" fill="none" xmlns="http://www.w3.org/2000/svg">
<path d="M6.47719 11.0376C5.41719 11.0376 4.45719 10.8076 3.59719 10.3476C2.74719 9.87758 2.07719 9.23258 1.58719 8.41258C1.10719 7.59258 0.867188 6.66758 0.867188 5.63758C0.867188 4.60758 1.11219 3.68258 1.60219 2.86258C2.09219 2.04258 2.76219 1.40258 3.61219 0.942579C4.47219 0.472579 5.43219 0.237579 6.49219 0.237579C7.35219 0.237579 8.13719 0.38758 8.84719 0.68758C9.55719 0.98758 10.1572 1.42258 10.6472 1.99258L9.38719 3.17758C8.62719 2.35758 7.69219 1.94758 6.58219 1.94758C5.86219 1.94758 5.21719 2.10758 4.64719 2.42758C4.07719 2.73758 3.63219 3.17258 3.31219 3.73258C2.99219 4.29258 2.83219 4.92758 2.83219 5.63758C2.83219 6.34758 2.99219 6.98258 3.31219 7.54258C3.63219 8.10258 4.07719 8.54258 4.64719 8.86258C5.21719 9.17258 5.86219 9.32758 6.58219 9.32758C7.69219 9.32758 8.62719 8.91258 9.38719 8.08258L10.6472 9.28258C10.1572 9.85258 9.55219 10.2876 8.83219 10.5876C8.12219 10.8876 7.33719 11.0376 6.47719 11.0376Z" fill="#96B67E" fill-opacity="0.93"/>
<path d="M19.198 11.0376C18.128 11.0376 17.163 10.8076 16.303 10.3476C15.443 9.87758 14.768 9.23258 14.278 8.41258C13.788 7.58258 13.543 6.65758 13.543 5.63758C13.543 4.61758 13.788 3.69758 14.278 2.87758C14.768 2.04758 15.443 1.40258 16.303 0.942579C17.163 0.472579 18.128 0.237579 19.198 0.237579C20.268 0.237579 21.233 0.472579 22.093 0.942579C22.953 1.40258 23.628 2.04258 24.118 2.86258C24.608 3.68258 24.853 4.60758 24.853 5.63758C24.853 6.66758 24.608 7.59258 24.118 8.41258C23.628 9.23258 22.953 9.87758 22.093 10.3476C21.233 10.8076 20.268 11.0376 19.198 11.0376ZM19.198 9.32758C19.898 9.32758 20.528 9.17258 21.088 8.86258C21.648 8.54258 22.088 8.10258 22.408 7.54258C22.728 6.97258 22.888 6.33758 22.888 5.63758C22.888 4.93758 22.728 4.30758 22.408 3.74758C22.088 3.17758 21.648 2.73758 21.088 2.42758C20.528 2.10758 19.898 1.94758 19.198 1.94758C18.498 1.94758 17.868 2.10758 17.308 2.42758C16.748 2.73758 16.308 3.17758 15.988 3.74758C15.668 4.30758 15.508 4.93758 15.508 5.63758C15.508 6.33758 15.668 6.97258 15.988 7.54258C16.308 8.10258 16.748 8.54258 17.308 8.86258C17.868 9.17258 18.498 9.32758 19.198 9.32758Z" fill="#96B67E" fill-opacity="0.93"/>
<path d="M39.8339 9.23758V13.1976H38.0339V10.8876H29.1239V0.387579H31.0439V9.23758H36.3389V0.387579H38.2739V9.23758H39.8339Z" fill="#96B67E" fill-opacity="0.93"/>
<path d="M46.8387 0.237579C47.8587 0.237579 48.7737 0.472579 49.5837 0.942579C50.4037 1.40258 51.0437 2.04258 51.5037 2.86258C51.9637 3.68258 52.1937 4.60758 52.1937 5.63758C52.1937 6.66758 51.9637 7.59258 51.5037 8.41258C51.0437 9.23258 50.4037 9.87758 49.5837 10.3476C48.7737 10.8076 47.8587 11.0376 46.8387 11.0376C45.9487 11.0376 45.1387 10.8876 44.4087 10.5876C43.6887 10.2876 43.0887 9.85258 42.6087 9.28258L43.8387 8.08258C44.6087 8.91258 45.5737 9.32758 46.7337 9.32758C47.6337 9.32758 48.3937 9.05258 49.0137 8.50258C49.6437 7.95258 50.0287 7.22758 50.1687 6.32758H45.4737V4.78258H50.1387C49.9687 3.93258 49.5737 3.24758 48.9537 2.72758C48.3437 2.20758 47.6037 1.94758 46.7337 1.94758C45.5737 1.94758 44.6087 2.36258 43.8387 3.19258L42.6087 1.99258C43.0887 1.42258 43.6887 0.98758 44.4087 0.68758C45.1387 0.38758 45.9487 0.237579 46.8387 0.237579Z" fill="#96B67E" fill-opacity="0.93"/>
<path d="M60.3381 6.46258H58.3881V10.8876H56.4681V0.387579H58.3881V4.78258H60.3981L63.4131 0.387579H65.4831L61.8981 5.47258L65.6181 10.8876H63.4131L60.3381 6.46258Z" fill="#96B67E" fill-opacity="0.93"/>
</svg>
