<svg width="304" height="277" viewBox="0 0 304 277" fill="none" xmlns="http://www.w3.org/2000/svg">
<path fill-rule="evenodd" clip-rule="evenodd" d="M264.814 131.14C278.368 128.858 288.063 145.318 301.434 148.493C310.626 150.675 320.749 142.253 329.221 146.432C337.682 150.607 338.172 162.672 344.448 169.716C352.828 179.121 369.85 182.144 372.085 194.542C374.209 206.329 362.387 216.184 354.439 225.149C347.526 232.948 338.563 238.058 329.289 242.815C320.4 247.375 311.401 252.077 301.415 252.35C291.297 252.626 282.001 248.252 272.658 244.361C262.148 239.983 249.31 237.78 243.269 228.131C237.222 218.47 242.082 205.948 241.485 194.565C240.851 182.47 235.457 170.266 239.639 158.896C244.025 146.972 252.283 133.25 264.814 131.14Z" fill="#F8E26C"/>
<path fill-rule="evenodd" clip-rule="evenodd" d="M207.277 8.30593C216.897 10.5964 218.07 24.2444 224.931 31.3537C229.686 36.2812 237.107 37.7915 241.098 43.3535C245.614 49.647 247.712 57.0853 248.885 64.7369C250.436 74.8594 254.985 86.5256 248.988 94.835C243.053 103.058 230.726 104.252 220.575 103.962C211.811 103.711 205.732 94.887 197.1 93.352C186.744 91.5101 175.309 99.5326 166.195 94.2903C156.933 88.963 151.301 77.5044 151.008 66.8404C150.72 56.4042 158.637 47.8762 164.682 39.3554C169.758 32.2 176.134 26.5965 183.228 21.4251C190.758 15.9363 198.206 6.14652 207.277 8.30593Z" fill="#96B67E"/>
<path fill-rule="evenodd" clip-rule="evenodd" d="M321.566 4.99269C331.903 14.9215 338.534 27.0585 346.238 39.149C354.821 52.6197 369.935 64.0329 369.366 80.009C368.796 96.0268 351.12 105.28 343.383 119.324C333.602 137.079 335.443 162.901 318.01 173.233C300.782 183.444 279.032 172.665 259.337 169.138C238.333 165.376 210.507 169.919 199.033 151.925C187.008 133.066 205.653 108.933 206.69 86.5717C207.421 70.8178 201.451 55.8194 204.211 40.2897C207.488 21.8508 210.079 1.41337 224.042 -11.0673C238.35 -23.8553 259.481 -29.1299 278.394 -26.0153C296.241 -23.0763 308.523 -7.53536 321.566 4.99269Z" fill="#FBA983"/>
<path fill-rule="evenodd" clip-rule="evenodd" d="M334.28 83.427C349.03 86.6241 447.523 96.8137 458.041 106.737C465.331 113.615 428.911 135.834 421.245 141.96C415.113 146.861 396.273 151.515 398.071 162.195C400.45 176.325 407.425 192.609 398.23 204.207C389.131 215.686 370.231 217.351 354.668 216.946C341.232 216.597 331.912 204.28 318.678 202.137C302.8 199.566 285.269 210.764 271.296 203.447C257.096 196.011 248.462 180.017 248.012 165.131C247.571 150.564 259.708 138.661 268.976 126.767C276.759 116.779 286.534 108.958 297.41 101.739C308.954 94.0778 320.374 80.4129 334.28 83.427Z" stroke="#FAFBF4" stroke-width="3"/>
<path fill-rule="evenodd" clip-rule="evenodd" d="M109.551 -114.799C125.385 -110.737 138.824 -102.217 153.293 -94.3802C169.415 -85.6484 190.8 -82.8926 199.328 -66.173C207.878 -49.4098 195.725 -29.4554 196.092 -10.4746C196.555 13.5239 213.058 38.9132 201.759 59.8292C190.592 80.5005 163.028 82.3238 141.615 90.3671C118.779 98.945 93.9441 120.078 72.4015 108.419C49.8241 96.1993 54.467 60.4127 42.7679 36.8685C34.5256 20.2809 20.1104 8.43535 13.9951 -9.1236C6.73413 -29.9719 -2.33968 -52.4636 4.31929 -73.5291C11.1423 -95.1134 28.9637 -113.033 49.3717 -121.037C68.6289 -128.589 89.5718 -119.924 109.551 -114.799Z" stroke="#FAFBF4" stroke-width="3"/>
<path fill-rule="evenodd" clip-rule="evenodd" d="M361.33 -51.0805C372.258 -40.3836 379.16 -27.1952 387.217 -14.0779C396.193 0.536825 412.23 12.7722 411.318 30.3067C410.405 47.887 391.225 58.3687 382.644 73.9175C371.794 93.5766 373.289 121.865 354.351 133.526C335.635 145.049 312.451 133.634 291.341 130.134C268.828 126.402 238.823 131.907 226.824 112.384C214.248 91.9243 234.748 65.1032 236.283 40.5565C237.364 23.2627 231.226 6.92324 234.485 -10.1627C238.354 -30.4494 241.523 -52.9154 256.771 -66.8671C272.395 -81.1624 295.215 -87.3443 315.492 -84.2827C334.626 -81.3938 347.54 -64.5776 361.33 -51.0805Z" stroke="#FAFBF4" stroke-width="3"/>
</svg>
