<svg width="564" height="1220" viewBox="0 0 564 1220" fill="none" xmlns="http://www.w3.org/2000/svg">
<g filter="url(#filter0_d)">
<path fill-rule="evenodd" clip-rule="evenodd" d="M443.85 504.48C431.327 466.198 461.148 427.698 461.739 387.416C462.326 347.382 427.446 305.436 447.28 270.638C466.938 236.148 515.328 230.909 554.527 224.622C587.231 219.376 619.684 239.318 652.436 244.207C685.374 249.124 717.676 238.832 747.595 253.441C783.791 271.115 833.673 288.427 850.266 325.121C867.589 363.43 848.917 412.486 837.869 453.07C826.58 494.536 809.604 537.25 774.867 562.578C740.933 587.32 695.514 581.42 653.922 587.189C612.089 592.992 569.426 611.99 530.144 596.524C490.192 580.794 457.196 545.279 443.85 504.48Z" fill="#81B29A" fill-opacity="0.83"/>
</g>
<g filter="url(#filter1_d)">
<path fill-rule="evenodd" clip-rule="evenodd" d="M503.747 68.9823C498.849 54.0094 510.513 38.9513 510.744 23.1963C510.973 7.53844 497.331 -8.86771 505.088 -22.4778C512.777 -35.9674 531.703 -38.0166 547.035 -40.4758C559.826 -42.5275 572.519 -34.7278 585.329 -32.8157C598.212 -30.8926 610.846 -34.9177 622.548 -29.2039C636.705 -22.2914 656.214 -15.5202 662.704 -1.16842C669.48 13.8147 662.177 33.0016 657.856 48.8748C653.44 65.093 646.801 81.7995 633.214 91.7057C619.942 101.383 602.178 99.0751 585.91 101.332C569.548 103.601 552.862 111.032 537.498 104.983C521.872 98.8304 508.967 84.9397 503.747 68.9823Z" fill="#81B29A" fill-opacity="0.83"/>
</g>
<g filter="url(#filter2_d)">
<path fill-rule="evenodd" clip-rule="evenodd" d="M441.859 -28.8884C467.687 -30.1307 495.428 -20.9691 513.925 -2.84499C532.196 15.0575 526.923 46.6024 540.833 68.0895C553.021 86.917 579.522 93.3 589.253 113.516C599.398 134.594 599.366 159.382 595.918 182.531C592.352 206.481 584.572 230.456 569.073 249.022C553.68 267.462 530.563 276.592 508.861 286.817C487.307 296.972 465.655 309.85 441.859 308.956C418.233 308.069 396.55 295.547 377.231 281.874C359.387 269.245 350.363 248.224 334.61 233.051C316.326 215.44 286.547 208.508 276.726 185.067C267.03 161.921 273.741 134.129 283.48 111C292.75 88.9861 314.928 76.282 330.242 57.9754C345.173 40.1264 354.694 18.2136 373.047 3.93084C393.368 -11.8842 416.168 -27.6528 441.859 -28.8884Z" fill="#FF9568" fill-opacity="0.81"/>
</g>
<g filter="url(#filter3_d)">
<path fill-rule="evenodd" clip-rule="evenodd" d="M475 703C442.094 690.714 405 686 381 667C359.215 649.754 322.409 594.9 337.027 557.118C351.551 519.581 406.889 526.785 442.113 507.188C476.854 487.861 498.864 441.448 538.512 445.026C580.59 448.824 610.829 487.259 631.12 524.248C651.076 560.628 657.894 602.835 647.01 642.814C636.084 682.949 610.939 720.044 573.081 737.448C537.436 753.835 511.797 716.74 475 703Z" fill="#FFE769" fill-opacity="0.77"/>
</g>
<g filter="url(#filter4_d)">
<path fill-rule="evenodd" clip-rule="evenodd" d="M271.013 -114.703C295.722 -112.965 310.741 -87.0552 333.55 -77.3832C356.218 -67.7708 388.195 -77.9182 403.42 -58.556C418.511 -39.3651 410.281 -10.5872 404.778 13.1993C400.187 33.0439 381.306 46.9083 370.931 64.4315C360.497 82.0546 358.873 102.84 343.618 116.497C325.162 133.019 303.74 157.421 278.993 158.369C253.157 159.358 229.54 137.354 208.983 121.655C187.979 105.615 167.582 86.0455 161.205 60.3882C154.976 35.3248 168.862 10.8201 175.215 -14.2088C181.605 -39.3827 180.67 -68.0874 198.583 -86.8792C216.802 -105.991 244.68 -116.556 271.013 -114.703Z" fill="#7699FD" fill-opacity="0.85"/>
</g>
<path fill-rule="evenodd" clip-rule="evenodd" d="M754.032 229.266C717.323 252.148 683.375 289.86 640.433 287.19C597.251 284.506 576.818 222.166 541.678 197.335C515.646 178.941 461.965 199.26 439.276 176.902C414.472 152.458 345.367 169.566 329.762 138.414C309.857 98.6792 342.652 -3.65532 356.953 -46.1097C371.143 -88.2316 427.804 -96.4451 464.422 -121.895C497.714 -145.033 524.766 -176.383 563.106 -189.387C605.099 -203.63 653.769 -219.018 693.157 -199.474C732.65 -179.879 749.7 -132.144 763.093 -90.1562C773.974 -56.0406 746.733 -16.6597 761.817 15.7825C785.868 67.5123 856.614 70.9296 854.526 128.195C852.737 177.247 795.958 203.132 754.032 229.266Z" stroke="#FAFBF4" stroke-width="2.5"/>
<path d="M197.267 151.979C230.08 163.695 254.497 117.042 289.319 117.551C321.169 118.016 345.901 66.2199 377.427 61.5098C419.982 55.1519 477.847 86.0616 510.9 58.1442C543.769 30.3823 542.22 -20.3353 552.919 -62.2481C565.139 -110.117 588.262 -168.076 555.639 -204.751C517.552 -247.566 464.079 -201.119 410.936 -221.862C377.607 -234.87 370.059 -282.157 338.609 -299.279C299.902 -320.354 254.58 -343.051 212.499 -329.901C170.53 -316.787 146.009 -272.018 125.518 -232.693C106.811 -196.789 108.944 -155.437 100.89 -115.701" stroke="#FAFBF4" stroke-width="2.5"/>
<path fill-rule="evenodd" clip-rule="evenodd" d="M649.753 272.425C682.946 276.836 709.788 324.351 734.118 347.073C758.584 369.923 740.082 417.171 748.839 449.277C755.325 473.061 778.427 500.013 780.964 524.517C783.738 551.306 831.499 587.962 825.475 614.227C817.792 647.729 763.559 666.816 748.839 702.39C734.118 737.965 721.313 972.809 686.91 969.975C655.631 967.398 574.871 680.572 545.57 669.465C513.476 657.299 476.83 642.532 462.934 611.491C449 580.367 462.328 543.497 475.01 511.856C485.314 486.147 520.979 476.055 527.95 449.277C539.065 406.578 498.498 369.728 527.95 336.589C553.178 308.203 611.842 267.388 649.753 272.425Z" stroke="#FAFBF4" stroke-width="2.5"/>
<path fill-rule="evenodd" clip-rule="evenodd" d="M164.481 540.486C194.982 522.678 246.372 543.166 280.58 545.584C314.98 548.017 328.206 597.403 355.068 617.268C374.968 631.985 410.719 638.55 427.746 656.373C446.362 675.859 508.68 674.297 519.604 699.014C533.537 730.542 499.694 780.511 508.99 818.203C518.286 855.894 650.366 1050.55 619.81 1070.38C592.03 1088.42 349.924 912.567 318.613 922.561C284.318 933.507 244.627 945.311 214.103 929.59C183.498 913.827 172.248 876.002 163.635 842.741C156.636 815.717 180.39 784.809 169.947 759.076C153.297 718.044 96.8898 714.835 101.421 669.619C105.301 630.889 129.646 560.825 164.481 540.486Z" stroke="#FAFBF4" stroke-width="2.5"/>
<defs>
<filter id="filter0_d" x="322" y="90" width="624.509" height="619.667" filterUnits="userSpaceOnUse" color-interpolation-filters="sRGB">
<feFlood flood-opacity="0" result="BackgroundImageFix"/>
<feColorMatrix in="SourceAlpha" type="matrix" values="0 0 0 0 0 0 0 0 0 0 0 0 0 0 0 0 0 0 127 0"/>
<feOffset dy="2"/>
<feGaussianBlur stdDeviation="5"/>
<feColorMatrix type="matrix" values="0 0 0 0 0 0 0 0 0 0 0 0 0 0 0 0 0 0 0.15 0"/>
<feBlend mode="normal" in2="BackgroundImageFix" result="effect1_dropShadow"/>
<feBlend mode="normal" in="SourceGraphic" in2="effect1_dropShadow" result="shape"/>
</filter>
<filter id="filter1_d" x="450" y="-98" width="256.435" height="254.542" filterUnits="userSpaceOnUse" color-interpolation-filters="sRGB">
<feFlood flood-opacity="0" result="BackgroundImageFix"/>
<feColorMatrix in="SourceAlpha" type="matrix" values="0 0 0 0 0 0 0 0 0 0 0 0 0 0 0 0 0 0 127 0"/>
<feOffset dy="2"/>
<feGaussianBlur stdDeviation="5"/>
<feColorMatrix type="matrix" values="0 0 0 0 0 0 0 0 0 0 0 0 0 0 0 0 0 0 0.15 0"/>
<feBlend mode="normal" in2="BackgroundImageFix" result="effect1_dropShadow"/>
<feBlend mode="normal" in="SourceGraphic" in2="effect1_dropShadow" result="shape"/>
</filter>
<filter id="filter2_d" x="262" y="-37" width="346" height="358" filterUnits="userSpaceOnUse" color-interpolation-filters="sRGB">
<feFlood flood-opacity="0" result="BackgroundImageFix"/>
<feColorMatrix in="SourceAlpha" type="matrix" values="0 0 0 0 0 0 0 0 0 0 0 0 0 0 0 0 0 0 127 0"/>
<feOffset dy="2"/>
<feGaussianBlur stdDeviation="5"/>
<feColorMatrix type="matrix" values="0 0 0 0 0 0 0 0 0 0 0 0 0 0 0 0 0 0 0.15 0"/>
<feBlend mode="normal" in2="BackgroundImageFix" result="effect1_dropShadow"/>
<feBlend mode="normal" in="SourceGraphic" in2="effect1_dropShadow" result="shape"/>
</filter>
<filter id="filter3_d" x="294.516" y="392.009" width="405.913" height="379.613" filterUnits="userSpaceOnUse" color-interpolation-filters="sRGB">
<feFlood flood-opacity="0" result="BackgroundImageFix"/>
<feColorMatrix in="SourceAlpha" type="matrix" values="0 0 0 0 0 0 0 0 0 0 0 0 0 0 0 0 0 0 127 0"/>
<feOffset dy="2"/>
<feGaussianBlur stdDeviation="5"/>
<feColorMatrix type="matrix" values="0 0 0 0 0 0 0 0 0 0 0 0 0 0 0 0 0 0 0.1 0"/>
<feBlend mode="normal" in2="BackgroundImageFix" result="effect1_dropShadow"/>
<feBlend mode="normal" in="SourceGraphic" in2="effect1_dropShadow" result="shape"/>
</filter>
<filter id="filter4_d" x="124" y="-147" width="327.27" height="334.943" filterUnits="userSpaceOnUse" color-interpolation-filters="sRGB">
<feFlood flood-opacity="0" result="BackgroundImageFix"/>
<feColorMatrix in="SourceAlpha" type="matrix" values="0 0 0 0 0 0 0 0 0 0 0 0 0 0 0 0 0 0 127 0"/>
<feOffset dy="2"/>
<feGaussianBlur stdDeviation="5"/>
<feColorMatrix type="matrix" values="0 0 0 0 0 0 0 0 0 0 0 0 0 0 0 0 0 0 0.15 0"/>
<feBlend mode="normal" in2="BackgroundImageFix" result="effect1_dropShadow"/>
<feBlend mode="normal" in="SourceGraphic" in2="effect1_dropShadow" result="shape"/>
</filter>
</defs>
</svg>
