<svg width="234" height="524" viewBox="0 0 234 524" fill="none" xmlns="http://www.w3.org/2000/svg">
  <path clip-rule="evenodd" d="M47.356 256.022C86.7128 257.016 105.216 294.584 129.333 320.91C152.745 346.465 184.961 369.862 181.115 402.028C176.811 438.018 149.308 472.082 109.64 485.6C72.1091 498.39 32.6877 480.792 -3.08574 464.8C-36.5496 449.841 -72.0442 432.092 -80.0496 400.802C-87.9808 369.802 -63.3898 342.05 -40.9999 316.607C-17.1826 289.542 7.48437 255.014 47.356 256.022Z" fill="#FBA983" fill-opacity="0.8"/>
  <path fill-rule="evenodd" clip-rule="evenodd" d="M65.8418 132.021C105.347 133.011 123.92 170.408 148.128 196.614C171.628 222.053 201.956 230.334 198.095 262.353C193.775 298.178 135.295 351.356 112.036 359.216C74.3639 371.948 38.6264 349.766 2.71821 333.847C-30.8718 318.956 -54.0083 307.29 -62.0439 276.142C-70.005 245.283 -45.3213 217.658 -22.847 192.331C1.06002 165.389 25.82 131.019 65.8418 132.021Z" fill="#F8DE67" fill-opacity="0.8"/>
  <path fill-rule="evenodd" clip-rule="evenodd" d="M-4.0596 282.989C-43.2446 281.995 -29.6894 250.223 -53.7013 223.918C-77.011 198.382 -109.086 175.004 -105.257 142.863C-100.972 106.902 -73.5888 72.8652 -34.0941 59.3578C3.27277 46.5781 80.2904 58.6593 115.908 74.6386C149.225 89.5864 146.796 112.823 154.767 144.089C162.663 175.065 97.8261 180.013 75.534 205.436C65.3845 217.011 35.6379 283.995 -4.0596 282.989Z" fill="#879FDA" fill-opacity="0.8"/>
  <path fill-rule="evenodd" clip-rule="evenodd" d="M-38.75 180.625C-7.93064 184.732 28.1396 179.335 50.7297 200.494C73.4462 221.772 56.2677 265.769 64.3977 295.665C70.4205 317.813 109.479 331.12 111.835 353.938C114.411 378.884 160.553 401.043 154.96 425.5C147.826 456.696 82.843 498.525 55.4983 515.559C28.3677 532.459 -6.80706 511.06 -38.75 508.421C-67.7919 506.022 -97.1284 511.045 -124.335 500.702C-154.133 489.374 -188.158 475.623 -201.061 446.717C-213.999 417.735 -201.623 383.402 -189.848 353.938C-180.281 329.998 -147.166 320.601 -140.694 295.665C-130.374 255.905 -168.04 221.59 -140.694 190.732C-117.271 164.299 -73.9492 175.934 -38.75 180.625Z" stroke="white" stroke-width="2.5"/>
  <path fill-rule="evenodd" clip-rule="evenodd" d="M89.8275 125.425C108.734 150.133 138.068 171.844 139.11 202.771C140.157 233.871 96.9312 252.787 81.5709 279.653C70.1918 299.555 88.431 336.59 73.9843 354.371C58.1897 373.811 75.1901 422.109 53.961 435.423C26.8821 452.406 -48.6382 435.965 -80.0163 428.646C-111.149 421.384 -120.926 381.383 -141.664 356.917C-160.519 334.673 -184.824 317.462 -196.771 290.907C-209.856 261.822 -224.22 228.036 -212.937 198.493C-201.623 168.871 -168.621 153.381 -139.481 140.905C-115.805 130.769 -85.7375 147.563 -63.5483 134.533C-28.1672 113.756 -30.5859 62.872 10.5563 60.4287C45.7971 58.3359 68.2341 97.206 89.8275 125.425Z" stroke="white" stroke-width="2.5"/>
</svg>
