<svg width="339" height="351" viewBox="0 0 339 351" fill="none" xmlns="http://www.w3.org/2000/svg">
<g clip-path="url(#clip0)">
<path fill-rule="evenodd" clip-rule="evenodd" d="M126.088 90.5303C139.016 102.949 147.31 118.129 156.946 133.251C167.682 150.099 186.584 164.374 185.873 184.355C185.16 204.389 163.051 215.963 153.376 233.527C141.142 255.735 143.444 288.031 121.641 300.954C100.093 313.725 72.8894 300.243 48.2562 295.832C21.9859 291.127 -12.8175 296.809 -27.1681 274.303C-42.2079 250.715 -18.8878 220.531 -17.5905 192.564C-16.6766 172.86 -24.1437 154.101 -20.6918 134.677C-16.5934 111.615 -13.3528 86.0535 4.11191 70.4436C22.0068 54.4492 48.4367 47.8522 72.0919 51.7477C94.4132 55.4235 109.774 74.8611 126.088 90.5303Z" fill="#FBA983"/>
<path fill-rule="evenodd" clip-rule="evenodd" d="M134.849 64.3937C138.346 85.1655 113.122 100.022 108.256 120.514C104.912 134.6 117.819 150.113 111.414 163.096C105.016 176.063 86.5278 176.813 75.733 186.431C61.3188 199.274 56.6876 225.359 37.6877 228.783C19.6238 232.039 4.52233 213.922 -9.21696 201.742C-21.1682 191.147 -28.9994 177.412 -36.2896 163.2C-43.2775 149.579 -50.4835 135.787 -50.9012 120.485C-51.3245 104.978 -44.6222 90.7324 -38.6589 76.415C-31.9504 60.3087 -28.5735 40.6344 -13.787 31.3778C1.01774 22.1098 20.2075 29.5581 37.6515 28.6432C56.1872 27.6712 74.8901 19.4053 92.313 25.8136C110.587 32.5351 131.616 45.1905 134.849 64.3937Z" fill="#F8E26C"/>
<path fill-rule="evenodd" clip-rule="evenodd" d="M120.71 60.2324C123.844 78.8503 101.236 92.1665 96.8751 110.533C93.8773 123.159 105.446 137.063 99.7049 148.7C93.9705 160.322 77.3995 160.995 67.7241 169.615C54.8046 181.126 50.6536 204.506 33.6239 207.575C17.4331 210.494 3.89758 194.256 -8.41703 183.339C-19.129 173.842 -26.1481 161.531 -32.6824 148.793C-38.9457 136.584 -45.4044 124.223 -45.7789 110.507C-46.1583 96.6086 -40.151 83.84 -34.806 71.0072C-28.7932 56.571 -25.7664 38.9368 -12.5132 30.6401C0.756376 22.3331 17.9563 29.009 33.5915 28.1891C50.205 27.3178 66.9686 19.909 82.5848 25.6529C98.964 31.6774 117.812 43.0205 120.71 60.2324Z" stroke="#FAFBF4" stroke-width="3"/>
<path fill-rule="evenodd" clip-rule="evenodd" d="M288.951 26.1302C292.448 46.902 267.224 61.7587 262.359 82.2501C259.014 96.3365 271.922 111.85 265.516 124.832C259.118 137.799 240.63 138.55 229.836 148.168C215.421 161.01 210.79 187.095 191.79 190.519C173.726 193.775 158.625 175.659 144.886 163.479C132.934 152.884 125.103 139.148 117.813 124.937C110.825 111.315 103.619 97.5237 103.201 82.2213C102.778 66.7148 109.48 52.4689 115.444 38.1515C122.152 22.0453 125.529 2.37092 140.315 -6.88566C155.12 -16.1537 174.31 -8.70545 191.754 -9.62026C210.29 -10.5923 228.993 -18.8582 246.416 -12.4498C264.69 -5.72837 285.718 6.92704 288.951 26.1302Z" fill="#F8E26C"/>
<path fill-rule="evenodd" clip-rule="evenodd" d="M146.011 10.6374C166.014 15.4092 168.453 43.8425 182.718 58.6536C192.605 68.9192 208.035 72.0656 216.333 83.6531C225.722 96.7646 230.084 112.261 232.522 128.202C235.748 149.29 245.207 173.595 232.738 190.906C220.398 208.038 194.767 210.524 173.66 209.92C155.438 209.398 142.799 191.015 124.852 187.817C103.319 183.979 79.543 200.693 60.5929 189.772C41.3353 178.673 29.6264 154.801 29.0158 132.584C28.4183 110.842 44.8782 93.0754 57.4475 75.3237C68.0025 60.4167 81.2584 48.7427 96.0088 37.969C111.665 26.534 127.152 6.13855 146.011 10.6374Z" fill="#96B67E"/>
<path fill-rule="evenodd" clip-rule="evenodd" d="M112.553 -1.44231C131.794 2.73301 260.279 16.0403 274 29C283.51 37.9824 236 67 226 75C218 81.4 193.424 87.4785 195.769 101.427C198.872 119.879 207.971 141.146 195.977 156.293C184.106 171.283 159.452 173.459 139.149 172.93C121.621 172.473 109.463 156.388 92.2005 153.59C71.4875 150.232 48.6176 164.856 30.3893 155.3C11.8654 145.589 0.602537 124.701 0.0152115 105.261C-0.559569 86.2369 15.2733 70.691 27.3637 55.1583C37.5167 42.1146 50.2676 31.8999 64.4561 22.4728C79.5155 12.4673 94.4129 -5.37874 112.553 -1.44231Z" stroke="#FAFBF4" stroke-width="3"/>
<path fill-rule="evenodd" clip-rule="evenodd" d="M121.712 76.7568C133.394 88.1913 140.773 102.289 149.385 116.311C158.98 131.934 176.122 145.013 175.148 163.756C174.172 182.549 153.67 193.753 144.496 210.374C132.898 231.389 134.496 261.629 114.253 274.093C94.2461 286.411 69.4636 274.209 46.8975 270.468C22.8317 266.478 -9.24224 272.363 -22.069 251.494C-35.5118 229.623 -13.5977 200.952 -11.9573 174.713C-10.8016 156.227 -17.3627 138.76 -13.8793 120.496C-9.74326 98.8106 -6.35558 74.7953 9.944 59.8816C26.6451 44.6005 51.0387 37.9923 72.7143 41.265C93.1677 44.3531 106.972 62.3289 121.712 76.7568Z" stroke="#FAFBF4" stroke-width="3"/>
</g>
<defs>
<clipPath id="clip0">
<rect width="339" height="351" fill="white"/>
</clipPath>
</defs>
</svg>
