<svg width="199" height="478" viewBox="0 0 199 478" fill="none" xmlns="http://www.w3.org/2000/svg">
  <path fill-rule="evenodd" clip-rule="evenodd" d="M45.8228 388.6C40.8758 354.526 44.8975 347.183 51.054 339.122C69.5042 314.963 50.3455 282.191 78.4768 280.493C109.952 278.594 215.953 267.063 233.383 299.143C249.873 329.495 240.601 366.212 232.168 399.535C224.279 430.707 214.299 464.063 188.664 475.839C163.267 487.505 133.963 437.291 108.861 421.959C82.158 405.651 50.8346 423.119 45.8228 388.6Z" fill="#91A1C8" fill-opacity="0.8"/>
  <path fill-rule="evenodd" clip-rule="evenodd" d="M117.679 165.83C148.316 166.583 162.719 195.013 181.492 214.935C199.717 234.274 224.794 251.98 221.8 276.321C218.45 303.556 202.086 293.037 171.208 303.267C141.993 312.945 113.18 352.73 85.3332 340.628C59.2842 329.307 9.07625 318.595 1.51947 276.321C-4.65431 252.862 31.4725 230.933 48.9014 211.679C67.4412 191.197 86.6425 165.068 117.679 165.83Z" fill="#F8DE67" fill-opacity="0.8"/>
  <path fill-rule="evenodd" clip-rule="evenodd" d="M50.3289 41.9541C76.9534 27.0497 104.344 46.6118 130.968 55.8948C156.814 64.9064 276.651 31.3337 286.983 55.8948C298.543 83.3756 243.059 223.259 222.045 248.68C202.163 272.731 130.662 208.74 100.413 211.482C72.117 214.047 35.7012 192.81 17.8227 173.578C0.11011 154.525 23.3011 131.661 28.021 104.556C33.0418 75.7238 23.3563 57.0535 50.3289 41.9541Z" fill="#FBA983" fill-opacity="0.8"/>
  <path fill-rule="evenodd" clip-rule="evenodd" d="M243.07 107.6C272.399 111.624 306.725 106.337 328.223 127.064C349.841 147.907 333.493 191.005 341.23 220.291C346.962 241.986 384.132 255.022 386.374 277.373C388.825 301.81 432.735 323.516 427.413 347.474C420.624 378.033 358.783 419.007 332.761 435.694C306.942 452.249 273.469 431.287 243.07 428.702C215.433 426.352 187.515 431.272 161.624 421.14C133.267 410.043 100.887 396.573 88.6081 368.258C76.2962 339.867 88.0729 306.236 99.2787 277.373C108.383 253.922 139.897 244.717 146.056 220.291C155.877 181.342 120.032 147.729 146.056 117.5C168.347 91.6077 209.573 103.005 243.07 107.6Z" stroke="white" stroke-width="2.5"/>
  <path fill-rule="evenodd" clip-rule="evenodd" d="M99.4893 57.1677C121.33 36.582 139.468 6.06399 168.681 2.40233C198.058 -1.27983 219.561 39.3393 246.287 52.0511C266.085 61.4683 299.66 40.4809 317.702 53.0768C337.428 66.8477 381.776 46.108 396.15 65.7127C414.484 90.7195 405.167 165.915 400.834 197.2C396.534 228.241 359.448 241.213 337.989 263.568C318.478 283.893 304.187 309.112 280.019 323.055C253.549 338.327 222.731 355.25 193.807 346.751C164.806 338.229 147.396 307.307 133.161 279.901C121.596 257.633 135.015 226.819 120.831 206.252C98.2147 173.457 50.2079 180.17 44.4831 140.179C39.5795 105.925 74.5447 80.6789 99.4893 57.1677Z" stroke="white" stroke-width="2.5"/>
</svg>
