<svg width="405" height="882" viewBox="0 0 405 882" fill="none" xmlns="http://www.w3.org/2000/svg">
<g filter="url(#filter0_d)">
<path fill-rule="evenodd" clip-rule="evenodd" d="M-19.6583 301.334C20.8183 280.501 63.0208 272.662 105.232 273.907C154.056 275.348 217.064 270.197 234.42 308.83C251.665 347.214 194.594 391.394 178.03 435.945C161.693 479.885 190.534 509.638 150.938 542.366C108.915 577.101 24.0596 563.826 -24.9378 556.688C-73.1271 549.668 -99.7186 562.316 -122.326 525.5C-145.02 488.543 -152.079 441.039 -131.287 395.642C-111.71 352.898 -64.9215 324.631 -19.6583 301.334Z" fill="#FFE769" fill-opacity="0.77"/>
</g>
<g filter="url(#filter1_d)">
<path fill-rule="evenodd" clip-rule="evenodd" d="M0.124504 -24.1469C37.0325 -28.633 66.5563 5.2647 102.927 13.0118C139.074 20.7112 183.303 -3.36396 211.262 20.8264C238.974 44.8026 235.055 89.5588 233.731 126.181C232.625 156.735 208.757 182.552 198.466 211.335C188.117 240.281 191.652 271.374 173.067 295.852C150.582 325.464 125.974 367.534 89.7758 375.99C51.9846 384.818 10.9053 359.127 -23.8667 341.857C-59.3946 324.21 -95.0349 301.19 -111.751 265.199C-128.08 230.041 -114.605 189.969 -112.383 151.273C-110.148 112.353 -119.713 70.3186 -98.675 37.5162C-77.2781 4.15464 -39.2103 -19.3658 0.124504 -24.1469Z" fill="#81B29A" fill-opacity="0.83"/>
</g>
<g filter="url(#filter2_d)">
<path fill-rule="evenodd" clip-rule="evenodd" d="M224.97 -142.871C253.095 -144.308 283.304 -133.71 303.446 -112.744C323.342 -92.0341 317.6 -55.5428 332.747 -30.6864C346.02 -8.90669 374.878 -1.52272 385.474 21.8628C396.523 46.2461 396.487 74.921 392.733 101.701C388.849 129.406 380.378 157.14 363.5 178.617C346.737 199.948 321.564 210.511 297.931 222.339C274.46 234.086 250.882 248.983 224.97 247.949C199.241 246.923 175.63 232.437 154.592 216.621C135.16 202.011 125.334 177.694 108.18 160.142C88.2695 139.77 55.8405 131.75 45.1469 104.633C34.588 77.8579 41.8964 45.708 52.5015 18.9532C62.596 -6.51315 86.7469 -21.2092 103.423 -42.3864C119.683 -63.0342 130.05 -88.3831 150.036 -104.905C172.165 -123.2 196.993 -141.442 224.97 -142.871Z" fill="#FF9568" fill-opacity="0.81"/>
</g>
<path fill-rule="evenodd" clip-rule="evenodd" d="M190.443 234C184.74 276.879 219.825 326.554 190.443 357.984C160.897 389.589 99.8027 365.689 58.2888 377C27.5346 385.38 9.0555 439.722 -22.6288 443C-57.269 446.584 -88.039 510.781 -122 503C-165.32 493.075 -223.403 402.663 -247.056 364.618C-270.524 326.871 -240.81 277.932 -237.145 233.49C-233.813 193.083 -240.788 152.267 -226.426 114.415C-210.695 72.9562 -191.601 25.6172 -151.462 7.66506C-111.217 -10.3349 -63.5429 6.88264 -22.6288 23.2656C10.6142 36.5768 23.6632 82.6494 58.2888 91.654C113.5 106.012 161.149 53.6074 204 91.654C240.704 124.243 196.957 185.027 190.443 234Z" stroke="#FAFBF4" stroke-width="2.5"/>
<path fill-rule="evenodd" clip-rule="evenodd" d="M375.938 -4.34967C370.32 38.5591 377.702 88.7784 348.761 120.23C319.657 151.857 259.477 127.94 218.584 139.259C188.291 147.645 170.088 202.025 138.878 205.305C104.756 208.891 74.447 273.133 40.9941 265.346C-1.67685 255.414 -58.8903 164.94 -82.1896 126.869C-105.307 89.0961 -76.0367 40.1234 -72.4271 -4.34967C-69.1453 -44.7837 -76.0151 -85.6279 -61.8681 -123.506C-46.3731 -164.994 -27.5644 -212.365 11.9731 -230.33C51.616 -248.342 98.5764 -231.113 138.878 -214.718C171.624 -201.398 184.477 -155.294 218.584 -146.283C272.969 -131.915 319.905 -184.356 362.114 -146.283C398.269 -113.671 382.355 -53.3563 375.938 -4.34967Z" stroke="#FAFBF4" stroke-width="2.5"/>
<path fill-rule="evenodd" clip-rule="evenodd" d="M148.858 743.308C133.328 762.358 124.758 789.944 96.2897 794.498C67.6619 799.079 32.7441 764.464 1.52299 754.552C-21.6061 747.209 -48.9157 767.151 -71.2877 756.941C-95.7468 745.778 -134.07 766 -154.977 749.477C-181.646 728.402 -196.43 662.059 -202.117 634.437C-207.76 607.03 -174.303 593.951 -159.73 573.368C-146.48 554.654 -140.106 531.889 -120.073 518.555C-98.1316 503.95 -72.3098 487.696 -40.2149 493.815C-8.03447 499.949 19.6028 526.253 42.8842 549.62C61.8005 568.606 58.1148 596.235 79.1399 613.61C112.665 641.315 159.223 633.22 177.924 668.01C193.943 697.811 166.595 721.55 148.858 743.308Z" stroke="#FAFBF4" stroke-width="2.5"/>
<defs>
<filter id="filter0_d" x="-205" y="181" width="531.222" height="490.713" filterUnits="userSpaceOnUse" color-interpolation-filters="sRGB">
<feFlood flood-opacity="0" result="BackgroundImageFix"/>
<feColorMatrix in="SourceAlpha" type="matrix" values="0 0 0 0 0 0 0 0 0 0 0 0 0 0 0 0 0 0 127 0"/>
<feOffset dy="2"/>
<feGaussianBlur stdDeviation="5"/>
<feColorMatrix type="matrix" values="0 0 0 0 0 0 0 0 0 0 0 0 0 0 0 0 0 0 0.1 0"/>
<feBlend mode="normal" in2="BackgroundImageFix" result="effect1_dropShadow"/>
<feBlend mode="normal" in="SourceGraphic" in2="effect1_dropShadow" result="shape"/>
</filter>
<filter id="filter1_d" x="-205.648" y="-102.98" width="536.51" height="544.691" filterUnits="userSpaceOnUse" color-interpolation-filters="sRGB">
<feFlood flood-opacity="0" result="BackgroundImageFix"/>
<feColorMatrix in="SourceAlpha" type="matrix" values="0 0 0 0 0 0 0 0 0 0 0 0 0 0 0 0 0 0 127 0"/>
<feOffset dy="2"/>
<feGaussianBlur stdDeviation="5"/>
<feColorMatrix type="matrix" values="0 0 0 0 0 0 0 0 0 0 0 0 0 0 0 0 0 0 0.15 0"/>
<feBlend mode="normal" in2="BackgroundImageFix" result="effect1_dropShadow"/>
<feBlend mode="normal" in="SourceGraphic" in2="effect1_dropShadow" result="shape"/>
</filter>
<filter id="filter2_d" x="30" y="-151" width="375" height="411" filterUnits="userSpaceOnUse" color-interpolation-filters="sRGB">
<feFlood flood-opacity="0" result="BackgroundImageFix"/>
<feColorMatrix in="SourceAlpha" type="matrix" values="0 0 0 0 0 0 0 0 0 0 0 0 0 0 0 0 0 0 127 0"/>
<feOffset dy="2"/>
<feGaussianBlur stdDeviation="5"/>
<feColorMatrix type="matrix" values="0 0 0 0 0 0 0 0 0 0 0 0 0 0 0 0 0 0 0.15 0"/>
<feBlend mode="normal" in2="BackgroundImageFix" result="effect1_dropShadow"/>
<feBlend mode="normal" in="SourceGraphic" in2="effect1_dropShadow" result="shape"/>
</filter>
</defs>
</svg>
