<svg width="381" height="417" viewBox="0 0 381 417" fill="none" xmlns="http://www.w3.org/2000/svg">
<path fill-rule="evenodd" clip-rule="evenodd" d="M168.088 156.53C181.016 168.949 189.31 184.129 198.946 199.251C209.682 216.099 228.584 230.374 227.873 250.355C227.16 270.389 205.051 281.963 195.376 299.527C183.142 321.735 185.444 354.031 163.641 366.954C142.093 379.725 114.889 366.243 90.2562 361.832C63.9859 357.127 29.1825 362.809 14.8319 340.303C-0.207941 316.715 23.1122 286.531 24.4095 258.564C25.3234 238.86 17.8563 220.101 21.3082 200.677C25.4066 177.615 28.6472 152.054 46.1119 136.444C64.0068 120.449 90.4367 113.852 114.092 117.748C136.413 121.423 151.774 140.861 168.088 156.53Z" fill="#FBA983"/>
<path fill-rule="evenodd" clip-rule="evenodd" d="M198.951 90.1302C202.448 110.902 177.224 125.759 172.359 146.25C169.014 160.336 181.922 175.85 175.516 188.832C169.118 201.799 150.63 202.55 139.836 212.168C125.421 225.01 120.79 251.095 101.79 254.519C83.7264 257.775 68.6249 239.659 54.8856 227.479C42.9343 216.884 35.1032 203.148 27.8129 188.937C20.8251 175.315 13.6191 161.524 13.2013 146.221C12.778 130.715 19.4803 116.469 25.4437 102.152C32.1521 86.0453 35.5291 66.3709 50.3155 57.1144C65.1203 47.8463 84.31 55.2946 101.754 54.3797C120.29 53.4077 138.993 45.1418 156.416 51.5502C174.69 58.2716 195.718 70.927 198.951 90.1302Z" fill="#F8E26C"/>
<path fill-rule="evenodd" clip-rule="evenodd" d="M162.71 126.232C165.844 144.85 143.236 158.166 138.875 176.533C135.877 189.159 147.446 203.063 141.705 214.7C135.97 226.322 119.4 226.995 109.724 235.615C96.8046 247.126 92.6536 270.506 75.6239 273.575C59.4331 276.494 45.8976 260.256 33.583 249.339C22.871 239.842 15.8519 227.531 9.31758 214.793C3.05434 202.584 -3.40444 190.223 -3.77888 176.507C-4.15831 162.609 1.849 149.84 7.19401 137.007C13.2068 122.571 16.2336 104.937 29.4868 96.6401C42.7564 88.3331 59.9563 95.009 75.5915 94.1891C92.205 93.3178 108.969 85.909 124.585 91.6529C140.964 97.6774 159.812 109.021 162.71 126.232Z" stroke="#FAFBF4" stroke-width="3"/>
<path fill-rule="evenodd" clip-rule="evenodd" d="M330.951 92.1302C334.448 112.902 309.224 127.759 304.359 148.25C301.014 162.336 313.922 177.85 307.516 190.832C301.118 203.799 282.63 204.55 271.836 214.168C257.421 227.01 252.79 253.095 233.79 256.519C215.726 259.775 200.625 241.659 186.886 229.479C174.934 218.884 167.103 205.148 159.813 190.937C152.825 177.315 145.619 163.524 145.201 148.221C144.778 132.715 151.48 118.469 157.444 104.152C164.152 88.0453 167.529 68.3709 182.315 59.1144C197.12 49.8463 216.31 57.2946 233.754 56.3797C252.29 55.4077 270.993 47.1418 288.416 53.5502C306.69 60.2716 327.718 72.927 330.951 92.1302Z" fill="#F8E26C"/>
<path fill-rule="evenodd" clip-rule="evenodd" d="M188.011 76.6374C208.014 81.4092 210.453 109.843 224.718 124.654C234.605 134.919 250.035 138.066 258.333 149.653C267.722 162.765 272.084 178.261 274.522 194.202C277.748 215.29 287.207 239.595 274.738 256.906C262.398 274.038 236.767 276.524 215.66 275.92C197.438 275.398 184.799 257.015 166.852 253.817C145.319 249.979 121.543 266.693 102.593 255.772C83.3353 244.673 71.6264 220.801 71.0158 198.584C70.4183 176.842 86.8782 159.075 99.4475 141.324C110.002 126.417 123.258 114.743 138.009 103.969C153.665 92.534 169.152 72.1386 188.011 76.6374Z" fill="#96B67E"/>
<path fill-rule="evenodd" clip-rule="evenodd" d="M154.553 64.5577C173.794 68.733 302.279 82.0403 316 95C325.51 103.982 278 133 268 141C260 147.4 235.424 153.478 237.769 167.427C240.872 185.879 249.971 207.146 237.977 222.293C226.106 237.283 201.452 239.459 181.149 238.93C163.621 238.473 151.463 222.388 134.2 219.59C113.487 216.232 90.6176 230.856 72.3893 221.3C53.8654 211.589 42.6025 190.701 42.0152 171.261C41.4404 152.237 57.2733 136.691 69.3637 121.158C79.5167 108.115 92.2676 97.8999 106.456 88.4728C121.515 78.4673 136.413 60.6213 154.553 64.5577Z" stroke="#FAFBF4" stroke-width="3"/>
<path fill-rule="evenodd" clip-rule="evenodd" d="M163.712 142.757C175.394 154.191 182.773 168.289 191.385 182.311C200.98 197.934 218.122 211.013 217.148 229.756C216.172 248.549 195.67 259.753 186.496 276.374C174.898 297.389 176.496 327.629 156.253 340.093C136.246 352.411 111.464 340.209 88.8975 336.468C64.8317 332.478 32.7578 338.363 19.931 317.494C6.48817 295.623 28.4023 266.952 30.0427 240.713C31.1984 222.227 24.6373 204.76 28.1207 186.496C32.2567 164.811 35.6444 140.795 51.944 125.882C68.6451 110.6 93.0387 103.992 114.714 107.265C135.168 110.353 148.972 128.329 163.712 142.757Z" stroke="#FAFBF4" stroke-width="3"/>
</svg>
