<svg width="209" height="384" viewBox="0 0 209 384" fill="none" xmlns="http://www.w3.org/2000/svg">
<mask id="mask0" mask-type="alpha" maskUnits="userSpaceOnUse" x="0" y="0" width="209" height="384">
<rect width="209" height="384" fill="#C4C4C4"/>
</mask>
<g mask="url(#mask0)">
<path fill-rule="evenodd" clip-rule="evenodd" d="M63.0046 181.021C101.164 181.99 119.105 218.595 142.488 244.245C165.188 269.146 196.424 291.943 192.695 323.284C188.522 358.351 161.855 391.541 123.394 404.713C87.0048 417.175 48.7824 400.029 14.0972 384.447C-18.3488 369.871 -52.7637 352.577 -60.5256 322.089C-68.2155 291.884 -44.3725 264.844 -22.6636 240.053C0.429123 213.682 24.3458 180.04 63.0046 181.021Z" fill="#FBA983"/>
<path fill-rule="evenodd" clip-rule="evenodd" d="M83.497 64.0203C120.891 64.9585 138.472 100.413 161.386 125.257C183.631 149.375 212.338 157.225 208.683 187.581C204.594 221.546 149.239 271.961 127.223 279.413C91.5636 291.483 57.7358 270.454 23.7464 255.362C-8.04872 241.244 -29.9489 230.184 -37.5552 200.654C-45.0908 171.398 -21.7261 145.209 -0.452721 121.197C22.1768 95.6545 45.6137 63.0698 83.497 64.0203Z" fill="#F8DE67"/>
<path fill-rule="evenodd" clip-rule="evenodd" d="M17.4546 206.989C-19.7786 206.048 -6.89861 175.94 -29.7145 151.014C-51.8631 126.817 -82.3409 104.663 -78.7021 74.2068C-74.6308 40.1301 -48.6114 7.87663 -11.0839 -4.92297C24.4218 -17.033 97.6032 -5.58487 131.446 9.55716C163.105 23.7216 160.797 45.7407 168.37 75.3681C175.873 104.721 114.266 109.41 93.0837 133.501C83.4398 144.469 55.1748 207.943 17.4546 206.989Z" fill="#6D86C4"/>
<path fill-rule="evenodd" clip-rule="evenodd" d="M-14.988 111.263C14.2138 115.146 48.3908 110.044 69.7953 130.048C91.3195 150.164 75.0427 191.759 82.7459 220.023C88.4526 240.961 125.461 253.542 127.693 275.114C130.134 298.698 173.854 319.647 168.555 342.769C161.795 372.262 100.223 411.807 74.3136 427.91C48.607 443.888 15.2784 423.658 -14.988 421.163C-42.5056 418.895 -70.3023 423.643 -96.0805 413.865C-124.315 403.155 -156.554 390.155 -168.78 362.827C-181.038 335.427 -169.313 302.969 -158.156 275.114C-149.09 252.481 -117.714 243.597 -111.581 220.023C-101.803 182.433 -137.492 149.992 -111.581 120.818C-89.3874 95.8288 -48.3397 106.828 -14.988 111.263Z" stroke="white" stroke-width="2.5"/>
<path fill-rule="evenodd" clip-rule="evenodd" d="M105.986 57.9621C123.902 81.3761 151.7 101.951 152.687 131.258C153.68 160.73 112.717 178.655 98.1613 204.114C87.378 222.974 104.662 258.07 90.9719 274.919C76.0044 293.341 92.1146 339.11 71.9971 351.727C46.3362 367.821 -25.2295 352.241 -54.9645 345.305C-84.4667 338.423 -93.7317 300.517 -113.384 277.332C-131.252 256.253 -154.284 239.943 -165.605 214.779C-178.005 187.217 -191.617 155.2 -180.925 127.203C-170.204 99.1326 -138.93 84.4543 -111.316 72.6317C-88.8793 63.0258 -60.3862 78.9412 -39.3589 66.5934C-5.83044 46.9045 -8.12251 -1.31553 30.8653 -3.63082C64.2608 -5.61402 85.5228 31.2206 105.986 57.9621Z" stroke="white" stroke-width="2.5"/>
</g>
</svg>
