<svg width="183" height="384" viewBox="0 0 183 384" fill="none" xmlns="http://www.w3.org/2000/svg">
<path fill-rule="evenodd" clip-rule="evenodd" d="M51.6534 352.156C46.4564 314.859 50.6813 306.822 57.1488 297.999C76.5313 271.554 56.4046 235.682 85.9571 233.824C119.023 231.744 230.379 219.123 248.689 254.238C266.012 287.461 256.272 327.652 247.413 364.126C239.126 398.247 228.642 434.758 201.712 447.648C175.032 460.418 144.247 405.453 117.876 388.672C89.8244 370.821 56.9183 389.941 51.6534 352.156Z" fill="#6D86C4"/>
<path fill-rule="evenodd" clip-rule="evenodd" d="M123.08 111.017C155.347 111.781 170.516 140.68 190.289 160.93C209.483 180.587 235.895 198.585 232.742 223.327C229.214 251.011 211.979 240.318 179.457 250.717C148.688 260.555 118.341 300.995 89.0127 288.693C61.5776 277.186 8.69784 266.298 0.738935 223.327C-5.76339 199.482 32.2859 177.191 50.6422 157.62C70.1687 136.801 90.3917 110.242 123.08 111.017Z" fill="#F8DE67"/>
<path fill-rule="evenodd" clip-rule="evenodd" d="M56.3874 -27.2799C84.3569 -43.5942 113.131 -22.1817 141.101 -12.0205C168.252 -2.15646 294.144 -38.905 304.998 -12.0205C317.142 18.0598 258.855 171.176 236.779 199.001C215.893 225.327 140.779 155.282 109.002 158.284C79.2762 161.092 41.0205 137.846 22.2388 116.795C3.63135 95.9398 27.994 70.913 32.9524 41.2442C38.2268 9.68414 28.052 -10.7522 56.3874 -27.2799Z" fill="#FBA983"/>
<path fill-rule="evenodd" clip-rule="evenodd" d="M258.82 45.1008C289.64 49.5032 325.71 43.7186 348.3 66.3976C371.017 89.2036 353.838 136.362 361.968 168.405C367.991 192.144 407.049 206.408 409.405 230.864C411.981 257.603 458.123 281.353 452.53 307.568C445.396 341.005 380.413 385.838 353.069 404.096C325.938 422.211 290.763 399.275 258.82 396.446C229.778 393.874 200.442 399.258 173.236 388.172C143.437 376.03 109.412 361.291 96.5092 330.309C83.5718 299.244 95.9469 262.445 107.722 230.864C117.29 205.205 150.404 195.132 156.876 168.405C167.196 125.789 129.53 89.0094 156.876 55.9336C180.3 27.6022 223.621 40.0728 258.82 45.1008Z" stroke="white" stroke-width="2.5"/>
<path fill-rule="evenodd" clip-rule="evenodd" d="M108.032 -10.6272C130.976 -33.1602 150.03 -66.5651 180.719 -70.5731C211.58 -74.6036 234.17 -30.1421 262.245 -16.2278C283.044 -5.91985 318.315 -28.8925 337.269 -15.1051C357.992 -0.0315091 404.58 -22.7331 419.68 -1.27391C438.94 26.0984 429.153 108.407 424.601 142.652C420.084 176.628 381.124 190.828 358.581 215.298C338.084 237.545 323.071 265.15 297.683 280.412C269.875 297.128 237.5 315.652 207.115 306.349C176.648 297.021 158.359 263.174 143.405 233.175C131.255 208.802 145.352 175.072 130.451 152.559C106.693 116.663 56.2603 124.011 50.2463 80.2369C45.095 42.7419 81.8267 15.108 108.032 -10.6272Z" stroke="white" stroke-width="2.5"/>
</svg>
