<svg width="56" height="56" viewBox="0 0 56 56" fill="none" xmlns="http://www.w3.org/2000/svg">
<path fill-rule="evenodd" clip-rule="evenodd" d="M23.8903 0.000991655C31.0571 0.0865037 36.8851 5.35082 40.8213 11.2231C44.2994 16.4119 44.6537 22.738 43.1784 28.7762C41.7267 34.7176 38.5026 40.1461 33.0374 43.0816C27.1976 46.2183 20.1643 47.0873 14.0975 44.3962C7.86501 41.6317 1.67999 35.321 0.186629 28.7762C-1.2986 22.267 6.44693 16.6125 10.4554 11.2231C14.7216 5.48701 16.6498 -0.0854003 23.8903 0.000991655Z" fill="url(#paint0_linear)" fill-opacity="0.8"/>
<path fill-rule="evenodd" clip-rule="evenodd" d="M29.8903 4.00099C37.0571 4.0865 40.0638 9.35082 44 15.2231C47.4781 20.4119 50.6537 26.738 49.1784 32.7762C47.7267 38.7176 38.9653 40.5645 33.5 43.5C27.6602 46.6367 19.0667 51.691 13 49C6.76749 46.2354 7.67999 39.321 6.18663 32.7762C4.7014 26.267 12.4469 20.6125 16.4554 15.2231C20.7216 9.48701 22.6498 3.9146 29.8903 4.00099Z" stroke="black" stroke-opacity="0.85" stroke-width="0.4"/>
<path d="M35.45 13V48H27.35V19.5H20.35V13H35.45Z" fill="#1A1A1A"/>
<defs>
<linearGradient id="paint0_linear" x1="0" y1="23" x2="44" y2="23" gradientUnits="userSpaceOnUse">
<stop stop-color="#A1C4FD"/>
<stop offset="1" stop-color="#C2E9FB"/>
</linearGradient>
</defs>
</svg>
