<svg width="50" height="50" viewBox="0 0 50 50" fill="none" xmlns="http://www.w3.org/2000/svg">
<path fill-rule="evenodd" clip-rule="evenodd" d="M26.9999 2.00122C33.0456 2.09304 36.8193 7.67311 40.5 12.5001C44.0598 17.1684 47.4508 23.694 46.5 29.5C45.4865 35.6898 42.2727 42.631 36.5 45C31.0586 47.2331 20.3235 47.5046 15.0001 45C9.56371 42.4422 5.45687 35.3581 4.00002 29.5C2.52164 23.5553 11.2128 20.2989 15.0001 15.5C18.8008 10.6841 20.889 1.90841 26.9999 2.00122Z" fill="url(#paint0_linear)" fill-opacity="0.8"/>
<path fill-rule="evenodd" clip-rule="evenodd" d="M18.5 4C24.5457 4.09182 40.8193 6.67312 44.5 11.5001C48.0598 16.1685 49.9507 27.1941 49 33.0001C47.9864 39.1898 37.1414 42.6306 31.3687 44.9997C25.9273 47.2328 19.6921 41.0043 14.3687 38.4997C8.93236 35.9419 2.63933 34.0705 1.18248 28.2123C-0.295899 22.2676 7.58146 19.2986 11.3687 14.4997C15.1695 9.6838 14.5 4 18.5 4Z" stroke="black" stroke-opacity="0.85" stroke-width="0.4"/>
<path d="M45.1 41.4V48H18.65V42.75L32.15 30C33.5833 28.6333 34.55 27.4667 35.05 26.5C35.55 25.5 35.8 24.5167 35.8 23.55C35.8 22.15 35.3167 21.0833 34.35 20.35C33.4167 19.5833 32.0333 19.2 30.2 19.2C28.6667 19.2 27.2833 19.5 26.05 20.1C24.8167 20.6667 23.7833 21.5333 22.95 22.7L17.05 18.9C18.4167 16.8667 20.3 15.2833 22.7 14.15C25.1 12.9833 27.85 12.4 30.95 12.4C33.55 12.4 35.8167 12.8333 37.75 13.7C39.7167 14.5333 41.2333 15.7333 42.3 17.3C43.4 18.8333 43.95 20.65 43.95 22.75C43.95 24.65 43.55 26.4333 42.75 28.1C41.95 29.7667 40.4 31.6667 38.1 33.8L30.05 41.4H45.1Z" fill="#1A1A1A"/>
<defs>
<linearGradient id="paint0_linear" x1="3.83252" y1="24.3893" x2="46.6621" y2="24.3893" gradientUnits="userSpaceOnUse">
<stop stop-color="#F6D365"/>
<stop offset="1" stop-color="#FDA085"/>
</linearGradient>
</defs>
</svg>
