<svg width="54" height="51" viewBox="0 0 54 51" fill="none" xmlns="http://www.w3.org/2000/svg">
<path fill-rule="evenodd" clip-rule="evenodd" d="M24.573 0.00940919C32.1164 0.282761 33.9782 4.2176 38.8258 9.98181C43.8388 15.9429 52.0162 23.1095 50.3971 30.717C48.7508 38.4531 42.9527 44.6482 35.7027 47.8687C28.7117 50.9741 18.5063 46.7223 11.8258 43C9.75439 40.5 4.97912 36.5897 3.13112 29.7205C1.15643 22.3804 7.37298 18.6519 11.8258 12.4818C16.4576 6.06372 16.6436 -0.277933 24.573 0.00940919Z" fill="url(#paint0_linear)" fill-opacity="0.8"/>
<path fill-rule="evenodd" clip-rule="evenodd" d="M14.7547 3.00019C17.6833 0.500285 35.2546 2.99985 38.7546 5.00002C42.2546 7.00018 40.9209 9.94224 44.2546 14C47.737 18.2387 53.5818 23.1133 52.7546 27C51.1082 34.7361 43.0046 40.2797 35.7546 43.5002C28.7637 46.6056 17.7547 47.8687 14.7547 46.0002C11.7546 44.1317 3.10259 42.8694 1.25458 36.0002C-0.720109 28.6601 9.30184 26.6702 13.7546 20.5002C18.3864 14.0821 11.8261 5.5001 14.7547 3.00019Z" stroke="black" stroke-opacity="0.85" stroke-width="0.4"/>
<path d="M34.0544 27.25C37.1211 27.75 39.4711 28.9 41.1044 30.7C42.7377 32.4667 43.5544 34.6667 43.5544 37.3C43.5544 39.3333 43.0211 41.2167 41.9544 42.95C40.8877 44.65 39.2544 46.0167 37.0544 47.05C34.8877 48.0833 32.2211 48.6 29.0544 48.6C26.5877 48.6 24.1544 48.2833 21.7544 47.65C19.3877 46.9833 17.3711 46.05 15.7044 44.85L18.8544 38.65C20.1877 39.65 21.7211 40.4333 23.4544 41C25.2211 41.5333 27.0211 41.8 28.8544 41.8C30.8877 41.8 32.4877 41.4167 33.6544 40.65C34.8211 39.85 35.4044 38.7333 35.4044 37.3C35.4044 34.4333 33.2211 33 28.8544 33H25.1544V27.65L32.3544 19.5H17.4544V13H41.9544V18.25L34.0544 27.25Z" fill="#1A1A1A"/>
<defs>
<linearGradient id="paint0_linear" x1="2.75439" y1="24.4712" x2="50.6058" y2="24.4712" gradientUnits="userSpaceOnUse">
<stop stop-color="#D4FC79"/>
<stop offset="1" stop-color="#96E6A1"/>
</linearGradient>
</defs>
</svg>
