<svg width="50" height="54" viewBox="0 0 50 54" fill="none" xmlns="http://www.w3.org/2000/svg">
<path fill-rule="evenodd" clip-rule="evenodd" d="M25.4798 3.00129C38.5322 3.16236 38.2749 11.6342 42.7465 17.4729C46.8139 22.7837 49.8835 27.1106 48.8928 33.572C47.7927 40.7466 44.0399 47.8396 37.0764 51.0523C30.0437 54.2968 22.4146 48.4143 16.9341 45.42C11.4536 42.4257 5.56186 39.6408 4.23672 33.11C2.9841 26.9367 9.54384 22.7209 13.2466 17.4729C17.5076 11.4336 17.7307 2.90566 25.4798 3.00129Z" fill="url(#paint0_linear)" fill-opacity="0.8"/>
<path fill-rule="evenodd" clip-rule="evenodd" d="M27.5802 1.00055C39.969 1.16193 36.6355 13.5371 40.8798 19.3868C44.7403 24.7077 50.3201 27.0426 49.3798 33.5162C48.3356 40.7043 44.8079 47.8108 38.1984 51.0295C31.5233 54.2802 22.7687 45.3866 19.0802 45.3866C15.3918 45.3866 2.4971 40.8868 1.08023 33.5162C-0.108724 27.3312 12.2542 24.6448 15.7687 19.3868C19.8131 13.3361 20.2251 0.904742 27.5802 1.00055Z" stroke="black" stroke-opacity="0.85" stroke-width="0.4"/>
<path d="M44.1914 43.651H38.4914V51.001H30.5914V43.651H11.7414V38.201L28.2414 16.001H36.7414L21.4414 37.051H30.8414V30.501H38.4914V37.051H44.1914V43.651Z" fill="#1A1A1A"/>
<defs>
<linearGradient id="paint0_linear" x1="3.7645" y1="27.953" x2="49.0679" y2="27.953" gradientUnits="userSpaceOnUse">
<stop stop-color="#F9D423"/>
<stop offset="0.557292" stop-color="#FFE074"/>
<stop offset="1" stop-color="#FDD23A"/>
</linearGradient>
</defs>
</svg>
