<svg width="51" height="52" viewBox="0 0 51 52" fill="none" xmlns="http://www.w3.org/2000/svg">
<path fill-rule="evenodd" clip-rule="evenodd" d="M24.6335 3.00941C32.1769 3.28276 34.0388 7.2176 38.8863 12.9818C43.8994 18.9429 52.0767 26.1095 50.4577 33.717C48.8113 41.4531 43.0133 47.6482 35.7632 50.8687C28.7723 53.9741 18.5669 49.7223 11.8863 46C9.81494 43.5 5.03967 39.5897 3.19167 32.7205C1.21697 25.3804 7.43353 21.6519 11.8863 15.4818C16.5181 9.06372 16.7041 2.72207 24.6335 3.00941Z" fill="url(#paint0_linear)" fill-opacity="0.8"/>
<path fill-rule="evenodd" clip-rule="evenodd" d="M12.5698 7.99971C15.4984 5.4998 33.0697 7.99937 36.5697 9.99953C40.0697 11.9997 38.736 14.9418 42.0697 18.9995C45.5521 23.2382 51.3969 28.1128 50.5697 31.9995C48.9233 39.7356 40.8197 45.2792 33.5697 48.4997C26.5788 51.6051 16.8244 50.9997 12.5698 50.9997C8.3151 50.9997 3.1631 48.3689 1.3151 41.4997C-0.659597 34.1596 7.11694 31.6697 11.5697 25.4997C16.2015 19.0816 9.64116 10.4996 12.5698 7.99971Z" stroke="black" stroke-opacity="0.85" stroke-width="0.4"/>
<path d="M27.95 26.15C32.8833 26.15 36.5167 27.1333 38.85 29.1C41.2167 31.0667 42.4 33.7 42.4 37C42.4 39.1333 41.8667 41.0833 40.8 42.85C39.7333 44.5833 38.1 45.9833 35.9 47.05C33.7333 48.0833 31.05 48.6 27.85 48.6C25.3833 48.6 22.95 48.2833 20.55 47.65C18.1833 46.9833 16.1667 46.05 14.5 44.85L17.7 38.65C19.0333 39.65 20.5667 40.4333 22.3 41C24.0333 41.5333 25.8167 41.8 27.65 41.8C29.6833 41.8 31.2833 41.4 32.45 40.6C33.6167 39.8 34.2 38.6833 34.2 37.25C34.2 35.75 33.5833 34.6167 32.35 33.85C31.15 33.0833 29.05 32.7 26.05 32.7H17.1L18.9 13H40.25V19.5H25.65L25.1 26.15H27.95Z" fill="#1A1A1A"/>
<defs>
<linearGradient id="paint0_linear" x1="2.81494" y1="27.4712" x2="50.6664" y2="27.4712" gradientUnits="userSpaceOnUse">
<stop stop-color="#A1C4FD"/>
<stop offset="1" stop-color="#C2E9FB"/>
</linearGradient>
</defs>
</svg>
