<svg width="46" height="51" viewBox="0 0 46 51" fill="none" xmlns="http://www.w3.org/2000/svg">
<path fill-rule="evenodd" clip-rule="evenodd" d="M21.3998 1.0008C34.4521 1.16187 34.1948 9.63369 38.6664 15.4724C42.7338 20.7832 45.8034 25.1101 44.8127 31.5715C43.7126 38.7461 39.9598 45.8391 32.9963 49.0518C25.9636 52.2963 18.3345 46.4138 12.854 43.4195C7.3735 40.4252 1.48179 37.6403 0.156638 31.1095C-1.09598 24.9362 5.46376 20.7204 9.16652 15.4724C13.4275 9.43311 13.6506 0.905169 21.3998 1.0008Z" fill="url(#paint0_linear)" fill-opacity="0.8"/>
<path fill-rule="evenodd" clip-rule="evenodd" d="M15.5005 4.99963C19.0004 3.59969 38.3197 5.67267 42.0004 10.4996C45.5602 15.168 45.9512 27.1937 45.0005 32.9997C43.9869 39.1895 33.1419 42.6303 27.3692 44.9993C21.9278 47.2324 18.3238 45.0043 13.0004 42.4996C7.56404 39.9418 4.95734 35.3578 3.50049 29.4996C2.75449 26.4996 6.71314 21.7985 10.5004 16.9996C14.3012 12.1837 13.0004 5.99963 15.5005 4.99963Z" stroke="black" stroke-opacity="0.85" stroke-width="0.4"/>
<path d="M31.8 26.05C34.0333 26.05 36.0667 26.5 37.9 27.4C39.7333 28.3 41.1833 29.5833 42.25 31.25C43.3167 32.8833 43.85 34.7833 43.85 36.95C43.85 39.2833 43.2667 41.3333 42.1 43.1C40.9333 44.8667 39.3333 46.2333 37.3 47.2C35.3 48.1333 33.0667 48.6 30.6 48.6C25.7 48.6 21.8667 47.1 19.1 44.1C16.3333 41.1 14.95 36.8167 14.95 31.25C14.95 27.2833 15.7 23.8833 17.2 21.05C18.7 18.2167 20.7833 16.0667 23.45 14.6C26.15 13.1333 29.2667 12.4 32.8 12.4C34.6667 12.4 36.45 12.6167 38.15 13.05C39.8833 13.45 41.35 14.0333 42.55 14.8L39.55 20.75C37.8167 19.5833 35.6333 19 33 19C30.0333 19 27.6833 19.8667 25.95 21.6C24.2167 23.3333 23.2833 25.85 23.15 29.15C25.2167 27.0833 28.1 26.05 31.8 26.05ZM30.15 42.55C31.8833 42.55 33.2833 42.0833 34.35 41.15C35.45 40.2167 36 38.95 36 37.35C36 35.75 35.45 34.4833 34.35 33.55C33.2833 32.5833 31.85 32.1 30.05 32.1C28.2833 32.1 26.8333 32.6 25.7 33.6C24.5667 34.5667 24 35.8167 24 37.35C24 38.8833 24.55 40.1333 25.65 41.1C26.75 42.0667 28.25 42.55 30.15 42.55Z" fill="#1A1A1A"/>
<defs>
<linearGradient id="paint0_linear" x1="-0.315575" y1="25.9525" x2="44.9878" y2="25.9525" gradientUnits="userSpaceOnUse">
<stop stop-color="#F9D423"/>
<stop offset="0.557292" stop-color="#FFE074"/>
<stop offset="1" stop-color="#FDD23A"/>
</linearGradient>
</defs>
</svg>
