<svg width="50" height="51" viewBox="0 0 50 51" fill="none" xmlns="http://www.w3.org/2000/svg">
<path fill-rule="evenodd" clip-rule="evenodd" d="M27.1674 2.00073C33.2131 2.09255 36.9868 7.67262 40.6675 12.4996C44.2273 17.168 47.6182 23.6935 46.6675 29.4995C45.6539 35.6893 42.4402 42.6305 36.6675 44.9995C31.2261 47.2326 20.4909 47.5042 15.1676 44.9995C9.73119 42.4417 5.62435 35.3576 4.1675 29.4995C2.68912 23.5548 11.3803 20.2984 15.1676 15.4996C18.9683 10.6836 21.0565 1.90792 27.1674 2.00073Z" fill="url(#paint0_linear)" fill-opacity="0.8"/>
<path fill-rule="evenodd" clip-rule="evenodd" d="M18.5 6C24.5457 6.09182 40.8193 8.67312 44.5 13.5001C48.0598 18.1685 49.9507 29.1941 49 35.0001C47.9864 41.1898 37.1414 44.6306 31.3687 46.9997C25.9273 49.2328 19.6921 43.0043 14.3687 40.4997C8.93236 37.9419 2.63933 36.0705 1.18248 30.2123C-0.295899 24.2676 7.58146 21.2986 11.3687 16.4997C15.1695 11.6838 14.5 6 18.5 6Z" stroke="black" stroke-opacity="0.85" stroke-width="0.4"/>
<path d="M48.1049 13V18.25L35.1049 48H26.3049L38.8549 19.6H27.2549V25.3H20.0549V13H48.1049Z" fill="#1A1A1A"/>
<defs>
<linearGradient id="paint0_linear" x1="4" y1="24.3888" x2="46.8296" y2="24.3888" gradientUnits="userSpaceOnUse">
<stop stop-color="#F6D365"/>
<stop offset="1" stop-color="#FDA085"/>
</linearGradient>
</defs>
</svg>
