<svg width="52" height="52" viewBox="0 0 52 52" fill="none" xmlns="http://www.w3.org/2000/svg">
<path fill-rule="evenodd" clip-rule="evenodd" d="M24.8186 3.00941C32.362 3.28276 34.2238 7.2176 39.0714 12.9818C44.0844 18.9429 52.2618 26.1095 50.6427 33.717C48.9964 41.4531 43.1983 47.6482 35.9483 50.8687C28.9573 53.9741 18.7519 49.7223 12.0714 46C10 43.5 5.22473 39.5897 3.37672 32.7205C1.40203 25.3804 7.61859 21.6519 12.0714 15.4818C16.7032 9.06372 16.8892 2.72207 24.8186 3.00941Z" fill="url(#paint0_linear)" fill-opacity="0.8"/>
<path fill-rule="evenodd" clip-rule="evenodd" d="M12.7543 7.99971C15.6829 5.4998 33.2543 7.99937 36.7543 9.99953C40.2543 11.9997 38.9205 14.9418 42.2543 18.9995C45.7367 23.2382 51.5815 28.1128 50.7543 31.9995C49.1079 39.7356 41.0043 45.2792 33.7543 48.4997C26.7634 51.6051 17.009 50.9997 12.7543 50.9997C8.49967 50.9997 3.34767 48.3689 1.49967 41.4997C-0.475027 34.1596 7.30151 31.6697 11.7543 25.4997C16.3861 19.0816 9.82573 10.4996 12.7543 7.99971Z" stroke="black" stroke-opacity="0.85" stroke-width="0.4"/>
<path d="M37.9 29.6C39.6333 30.4667 40.95 31.6 41.85 33C42.7833 34.4 43.25 36.0167 43.25 37.85C43.25 40.0167 42.6333 41.9167 41.4 43.55C40.1667 45.15 38.4333 46.4 36.2 47.3C33.9667 48.1667 31.3833 48.6 28.45 48.6C25.5167 48.6 22.9333 48.1667 20.7 47.3C18.5 46.4 16.7833 45.15 15.55 43.55C14.35 41.9167 13.75 40.0167 13.75 37.85C13.75 36.0167 14.2 34.4 15.1 33C16.0333 31.6 17.35 30.4667 19.05 29.6C17.75 28.8 16.75 27.8 16.05 26.6C15.35 25.3667 15 23.9667 15 22.4C15 20.3667 15.5667 18.6 16.7 17.1C17.8333 15.6 19.4167 14.45 21.45 13.65C23.4833 12.8167 25.8167 12.4 28.45 12.4C31.1167 12.4 33.4667 12.8167 35.5 13.65C37.5667 14.45 39.1667 15.6 40.3 17.1C41.4333 18.6 42 20.3667 42 22.4C42 23.9667 41.65 25.3667 40.95 26.6C40.25 27.8 39.2333 28.8 37.9 29.6ZM28.45 18.35C26.8167 18.35 25.5 18.75 24.5 19.55C23.5333 20.3167 23.05 21.3833 23.05 22.75C23.05 24.0833 23.5333 25.1333 24.5 25.9C25.4667 26.6667 26.7833 27.05 28.45 27.05C30.1167 27.05 31.45 26.6667 32.45 25.9C33.45 25.1333 33.95 24.0833 33.95 22.75C33.95 21.3833 33.45 20.3167 32.45 19.55C31.45 18.75 30.1167 18.35 28.45 18.35ZM28.45 42.65C30.4833 42.65 32.0833 42.2 33.25 41.3C34.45 40.3667 35.05 39.1333 35.05 37.6C35.05 36.0667 34.45 34.85 33.25 33.95C32.0833 33.05 30.4833 32.6 28.45 32.6C26.45 32.6 24.8667 33.05 23.7 33.95C22.5333 34.85 21.95 36.0667 21.95 37.6C21.95 39.1667 22.5333 40.4 23.7 41.3C24.8667 42.2 26.45 42.65 28.45 42.65Z" fill="#1A1A1A"/>
<defs>
<linearGradient id="paint0_linear" x1="3" y1="27.4712" x2="50.8514" y2="27.4712" gradientUnits="userSpaceOnUse">
<stop stop-color="#A1C4FD"/>
<stop offset="1" stop-color="#C2E9FB"/>
</linearGradient>
</defs>
</svg>
